<svg width="40" height="40" viewBox="0 0 40 40" fill="none" xmlns="http://www.w3.org/2000/svg">
<path fill-rule="evenodd" clip-rule="evenodd" d="M20 40.0002C31.0457 40.0002 40 31.0459 40 20.0002C40 8.95455 31.0457 0.000244141 20 0.000244141C8.9543 0.000244141 0 8.95455 0 20.0002C0 31.0459 8.9543 40.0002 20 40.0002ZM30.5745 15.0469C31.1526 14.4534 31.1401 13.5037 30.5466 12.9257C29.9532 12.3477 29.0035 12.3602 28.4255 12.9536L16.9733 24.7112L11.0478 18.9269C10.455 18.3482 9.50533 18.3596 8.92664 18.9524C8.34795 19.5452 8.35939 20.4949 8.9522 21.0736L15.9522 27.9069L17.0267 28.9559L18.0745 27.8802L30.5745 15.0469Z" fill="white"/>
</svg>
