<svg width="40" height="40" viewBox="0 0 40 40" fill="none" xmlns="http://www.w3.org/2000/svg">
<path d="M39.1094 16.6096L34.4297 15.4612C34.1719 14.6409 33.8438 13.844 33.4453 13.0706L35.8359 9.08618C36.1172 8.61743 36.0469 8.03149 35.6719 7.65649L32.3438 4.32837C31.9688 3.95337 31.3828 3.88306 30.9141 4.16431L26.9297 6.55493C26.1563 6.15649 25.3594 5.82837 24.5391 5.57056L23.4141 0.890869C23.2734 0.375244 22.8047 0.000244141 22.2656 0.000244141H17.5781C17.0391 0.000244141 16.5703 0.375244 16.4297 0.890869L15.3047 5.57056C14.4844 5.82837 13.6875 6.15649 12.9141 6.55493L8.92969 4.16431C8.46094 3.88306 7.875 3.95337 7.5 4.32837L4.17188 7.65649C3.79688 8.03149 3.72656 8.61743 4.00781 9.08618L6.39844 13.0706C6 13.844 5.67188 14.6409 5.41406 15.4612L0.890625 16.6096C0.375 16.7268 0 17.1956 0 17.7346V22.4221C0 22.9612 0.375 23.4299 0.890625 23.5471L5.41406 24.6956C5.67188 25.5159 6 26.3127 6.39844 27.0862L4.00781 31.0706C3.72656 31.5393 3.79688 32.1252 4.17188 32.5002L7.5 35.8284C7.875 36.2034 8.46094 36.2737 8.92969 35.9924L12.9141 33.6018C13.6875 34.0002 14.4844 34.3284 15.3047 34.5862L16.4297 39.1096C16.5703 39.6252 17.0391 40.0002 17.5781 40.0002H22.2656C22.8047 40.0002 23.2734 39.6252 23.4141 39.1096L24.5391 34.5862C25.3594 34.3284 26.1563 34.0002 26.9297 33.6018L30.9141 35.9924C31.3828 36.2737 31.9688 36.2034 32.3438 35.8284L35.6719 32.5002C36.0469 32.1252 36.1172 31.5393 35.8359 31.0706L33.4453 27.0862C33.8438 26.3127 34.1719 25.5159 34.4297 24.6956L39.1094 23.5471C39.625 23.4299 40 22.9612 40 22.4221V17.7346C40 17.1956 39.625 16.7268 39.1094 16.6096ZM19.9219 25.9377C16.6875 25.9377 14.0625 23.3127 14.0625 20.0784C14.0625 16.844 16.6875 14.219 19.9219 14.219C23.1562 14.219 25.7812 16.844 25.7812 20.0784C25.7812 23.3127 23.1562 25.9377 19.9219 25.9377Z" fill="white"/>
</svg>
