<svg width="40" height="40" viewBox="0 0 40 40" fill="none" xmlns="http://www.w3.org/2000/svg">
<path fill-rule="evenodd" clip-rule="evenodd" d="M20 40C31.0457 40 40 31.0457 40 20C40 8.9543 31.0457 0 20 0C8.9543 0 0 8.9543 0 20C0 31.0457 8.9543 40 20 40ZM15.532 19.068C16.5293 19.068 17.38 18.7307 18.084 18.056C18.788 17.3813 19.14 16.56 19.14 15.592C19.14 14.6387 18.7807 13.8247 18.062 13.15C17.358 12.4607 16.5147 12.116 15.532 12.116C14.5347 12.116 13.684 12.4607 12.98 13.15C12.2907 13.8247 11.946 14.6387 11.946 15.592C11.946 16.56 12.2907 17.3813 12.98 18.056C13.684 18.7307 14.5347 19.068 15.532 19.068ZM24.486 12.38L12.496 28H15.07L27.06 12.38H24.486ZM15.532 17.044C15.1213 17.044 14.7767 16.9047 14.498 16.626C14.2193 16.3473 14.08 16.0027 14.08 15.592C14.08 15.196 14.2193 14.8587 14.498 14.58C14.7767 14.2867 15.1213 14.14 15.532 14.14C15.9427 14.14 16.2873 14.2867 16.566 14.58C16.8593 14.8587 17.006 15.196 17.006 15.592C17.006 16.0027 16.8593 16.3473 16.566 16.626C16.2873 16.9047 15.9427 17.044 15.532 17.044ZM20.482 24.81C20.482 25.7633 20.8267 26.5773 21.516 27.252C22.22 27.9267 23.0707 28.264 24.068 28.264C25.0653 28.264 25.9087 27.9267 26.598 27.252C27.302 26.5773 27.654 25.7633 27.654 24.81C27.654 23.8567 27.302 23.0427 26.598 22.368C25.894 21.6787 25.0507 21.334 24.068 21.334C23.0707 21.334 22.22 21.6787 21.516 22.368C20.8267 23.0427 20.482 23.8567 20.482 24.81ZM23.034 25.822C22.7553 25.5433 22.616 25.1987 22.616 24.788C22.616 24.392 22.7553 24.0547 23.034 23.776C23.3127 23.4827 23.6573 23.336 24.068 23.336C24.4787 23.336 24.8233 23.4827 25.102 23.776C25.3953 24.0547 25.542 24.392 25.542 24.788C25.542 25.1987 25.3953 25.5433 25.102 25.822C24.8233 26.1007 24.4787 26.24 24.068 26.24C23.6573 26.24 23.3127 26.1007 23.034 25.822Z" fill="white"/>
</svg>
