<svg width="20" height="20" viewBox="0 0 20 20" fill="none" xmlns="http://www.w3.org/2000/svg">
<path d="M10 0C4.50745 0 0 4.50745 0 10C0 15.4926 4.50745 20 10 20C15.4926 20 20 15.4926 20 10C20 4.50745 15.4926 0 10 0ZM10 16.4453C6.44608 16.4453 3.55469 13.5539 3.55469 10C3.55469 6.44608 6.44608 3.55469 10 3.55469C13.5539 3.55469 16.4453 6.44608 16.4453 10C16.4453 13.5539 13.5539 16.4453 10 16.4453Z" fill="#50515A"/>
<path d="M10 9.41406C9.67667 9.41406 9.41406 9.67667 9.41406 10C9.41406 10.3233 9.67667 10.5859 10 10.5859C10.3233 10.5859 10.5859 10.3233 10.5859 10C10.5859 9.67667 10.3233 9.41406 10 9.41406Z" fill="#50515A"/>
<path d="M12.7539 7.73831L13.7265 6.27347C13.082 5.62878 12.2734 5.14844 11.3712 4.91406L10.5859 6.48434H9.41406L8.629 4.91406C7.72659 5.14844 6.91803 5.62878 6.2735 6.27347L7.24625 7.73831L6.66031 8.746L4.9025 8.64056C4.78516 9.07422 4.72656 9.53122 4.72656 9.99997C4.72656 10.4687 4.78516 10.9257 4.90234 11.3594L6.66016 11.2539L7.24609 12.2616L6.2735 13.7265C6.91803 14.371 7.72659 14.8515 8.62885 15.0859L9.41406 13.5156H10.5859L11.371 15.0859C12.2734 14.8515 13.082 14.371 13.7265 13.7265L12.7538 12.2616L13.3397 11.2539L15.0975 11.3594C15.2148 10.9257 15.2734 10.4687 15.2734 9.99997C15.2734 9.53122 15.2148 9.07422 15.0977 8.64056L13.3398 8.746L12.7539 7.73831ZM10 11.7578C9.03076 11.7578 8.24219 10.9692 8.24219 9.99997C8.24219 9.03073 9.03076 8.24216 10 8.24216C10.9692 8.24216 11.7578 9.03073 11.7578 9.99997C11.7578 10.9692 10.9692 11.7578 10 11.7578Z" fill="#50515A"/>
</svg>
