<svg width="21" height="21" viewBox="0 0 21 21" fill="none" xmlns="http://www.w3.org/2000/svg">
<g clip-path="url(#clip0)">
<path d="M20.9343 9.33393C20.9011 9.03877 20.5569 8.81672 20.2592 8.81672C19.297 8.81672 18.4432 8.25202 18.0851 7.37799C17.7195 6.48299 17.9554 5.4394 18.6722 4.78179C18.898 4.57537 18.9255 4.22971 18.7362 3.98978C18.2436 3.36441 17.684 2.79943 17.0728 2.30983C16.8337 2.11803 16.4823 2.14473 16.2748 2.3744C15.649 3.06752 14.5248 3.32508 13.656 2.96263C12.7523 2.58238 12.1818 1.6663 12.2379 0.68302C12.2563 0.373968 12.0304 0.10542 11.7224 0.0695473C10.938 -0.0212701 10.1467 -0.0239039 9.36005 0.0633718C9.056 0.0969742 8.83023 0.359164 8.84031 0.664311C8.87436 1.63797 8.29749 2.53788 7.40248 2.90451C6.54417 3.25515 5.42775 2.9995 4.8032 2.31247C4.59677 2.08615 4.25157 2.05836 4.01082 2.24608C3.38163 2.73985 2.80939 3.30519 2.31226 3.92548C2.11854 4.1666 2.14715 4.51606 2.37483 4.72322C3.10582 5.38519 3.34149 6.43776 2.96196 7.34321C2.5996 8.20643 1.70332 8.76251 0.677359 8.76251C0.344422 8.75179 0.10748 8.97547 0.0706985 9.27826C-0.0215721 10.0668 -0.0225711 10.8707 0.0662484 11.6658C0.0993968 11.9622 0.453857 12.1823 0.754827 12.1823C1.66936 12.1591 2.54684 12.7249 2.91547 13.621C3.28228 14.516 3.04615 15.5591 2.32815 16.2176C2.10356 16.4241 2.07486 16.7689 2.26449 17.0086C2.75208 17.63 3.31225 18.1954 3.92526 18.6891C4.16593 18.8829 4.51594 18.8558 4.72455 18.6258C5.35283 17.9311 6.47687 17.674 7.34209 18.0372C8.24845 18.4164 8.8186 19.3324 8.76293 20.3159C8.74468 20.625 8.97118 20.8944 9.27805 20.9294C9.67946 20.9764 10.083 20.9996 10.4877 20.9996C10.8719 20.9996 11.2561 20.9786 11.6404 20.9359C11.9448 20.9023 12.1702 20.6398 12.16 20.3346C12.1248 19.3614 12.703 18.4614 13.5969 18.0955C14.4609 17.7425 15.5723 18.0008 16.1972 18.6869C16.4048 18.9127 16.7479 18.9401 16.9896 18.7532C17.6177 18.2607 18.1889 17.6956 18.6882 17.0737C18.8821 16.833 18.8546 16.4831 18.6256 16.2756C17.8948 15.614 17.6579 14.561 18.0374 13.6565C18.3941 12.8049 19.2571 12.2331 20.1852 12.2331L20.3151 12.2365C20.6164 12.261 20.8933 12.0289 20.9297 11.7215C21.0225 10.9322 21.0235 10.1292 20.9343 9.33393ZM10.5004 16.553C7.1571 16.553 4.44701 13.8429 4.44701 10.4998C4.44701 7.15658 7.15719 4.4465 10.5004 4.4465C13.8435 4.4465 16.5537 7.15658 16.5537 10.4998C16.5537 11.6345 16.2408 12.6959 15.6975 13.6035L13.0469 10.9528C13.2388 10.5004 13.3401 10.0099 13.34 9.50367C13.34 8.51239 12.954 7.58052 12.253 6.87968C11.5521 6.17884 10.6202 5.79287 9.62915 5.79287C9.29839 5.79287 8.96918 5.83682 8.65068 5.92355C8.51118 5.9616 8.39712 6.07658 8.35997 6.21635C8.32201 6.35929 8.36479 6.50578 8.47649 6.61758C8.47649 6.61758 9.78508 7.93625 10.2229 8.37399C10.2688 8.41985 10.2687 8.52929 10.2622 8.5687L10.2581 8.59749C10.214 9.07882 10.1289 9.6566 10.0587 9.87865C10.0493 9.88801 10.0404 9.89591 10.0307 9.90553C10.0207 9.91562 10.0114 9.92533 10.0017 9.93532C9.77673 10.0075 9.19005 10.0936 8.70108 10.1374L8.70117 10.1348L8.6792 10.1403C8.67529 10.1408 8.66803 10.1413 8.6584 10.1413C8.60554 10.1413 8.5278 10.1265 8.45715 10.0559C8.00143 9.60021 6.74415 8.35192 6.74415 8.35192C6.63135 8.23949 6.51565 8.21588 6.43855 8.21588C6.25882 8.21588 6.09789 8.34575 6.04722 8.53201C5.70111 9.81281 6.06801 11.1905 7.00498 12.1276C7.706 12.8285 8.63797 13.2145 9.62924 13.2145C10.1355 13.2145 10.626 13.1132 11.0783 12.9213L13.7577 15.6007C12.817 16.2026 11.7 16.553 10.5004 16.553Z" fill="#50515A"/>
</g>
<defs>
<clipPath id="clip0">
<rect width="21" height="21" fill="white"/>
</clipPath>
</defs>
</svg>
