<svg width="20" height="20" viewBox="0 0 20 20" fill="none" xmlns="http://www.w3.org/2000/svg">
<g clip-path="url(#clip0)">
<path d="M19.1073 11.0393L18.3782 11.0189C18.1809 11.0134 17.9559 10.8285 17.8868 10.615C17.8227 10.4171 17.7465 10.2198 17.6605 10.0285C17.5689 9.82497 17.6127 9.53855 17.7561 9.40297L18.2895 8.89841C18.6633 8.54498 18.6798 7.95331 18.3263 7.57955L17.5074 6.71366C17.3362 6.53259 17.1047 6.42908 16.8556 6.42212C16.6065 6.41517 16.3696 6.50562 16.1885 6.67685L15.655 7.18141C15.5694 7.26238 15.4292 7.30825 15.2803 7.3041C15.187 7.30149 15.0988 7.27995 15.0253 7.24181C14.839 7.14515 14.646 7.05795 14.4515 6.98262C14.2423 6.90172 14.0702 6.66671 14.0757 6.4695L14.0961 5.74035C14.1104 5.22618 13.7038 4.79611 13.1895 4.78176L11.9979 4.74851C11.4836 4.73416 11.0536 5.14088 11.0393 5.65504L11.0189 6.3842C11.0134 6.58148 10.8285 6.80655 10.6151 6.87556C10.417 6.93974 10.2195 7.01583 10.0283 7.10176C9.95403 7.13513 9.8626 7.1521 9.7708 7.14954C9.62126 7.14537 9.48351 7.09164 9.4023 7.0058L8.89856 6.47336C8.72732 6.29229 8.49583 6.18877 8.24664 6.18182C7.99754 6.17487 7.76064 6.26531 7.57958 6.43645L6.71281 7.25564C6.53164 7.42677 6.42813 7.65822 6.42107 7.90734C6.41412 8.15643 6.50457 8.39333 6.67581 8.57439L7.18037 9.10791C7.31606 9.25139 7.34389 9.54001 7.2411 9.73824C7.14475 9.92417 7.05777 10.1168 6.98278 10.3109C6.90188 10.5201 6.66697 10.6922 6.46965 10.6867L5.74059 10.6664C5.22632 10.652 4.79633 11.0587 4.78199 11.5729L4.74873 12.7645C4.73439 13.2787 5.14102 13.7087 5.65529 13.7231L6.38435 13.7434C6.58167 13.7489 6.80672 13.9338 6.87583 14.1472C6.93979 14.3446 7.01589 14.5419 7.10201 14.7333C7.19353 14.9369 7.14954 15.2235 7.00596 15.3593L6.47243 15.8638C6.0987 16.2172 6.08219 16.8089 6.43563 17.1826L7.25567 18.0498C7.42691 18.2309 7.6584 18.3344 7.90749 18.3414C8.15658 18.3483 8.39348 18.2579 8.57455 18.0867L9.10808 17.5821C9.19392 17.5009 9.33438 17.455 9.48378 17.4592C9.57694 17.4618 9.66489 17.4832 9.73819 17.5212C9.92446 17.6178 10.1171 17.7048 10.311 17.7798C10.5201 17.8607 10.6923 18.0957 10.6868 18.293L10.6664 19.0221C10.6521 19.5363 11.0588 19.9663 11.573 19.9807L12.7646 20.0139C13.2789 20.0283 13.7088 19.6216 13.7232 19.1074L13.7435 18.3783C13.749 18.181 13.934 17.9559 14.1474 17.8869C14.3455 17.8227 14.543 17.7466 14.7342 17.6607C14.8084 17.6273 14.8999 17.6104 14.9917 17.613C15.1412 17.6171 15.2789 17.6709 15.3601 17.7567L15.8646 18.2902C16.0359 18.4713 16.2672 18.5748 16.5163 18.5817C16.7655 18.5887 17.0024 18.4981 17.1835 18.3268L18.0498 17.5071C18.4233 17.1535 18.4398 16.5619 18.0865 16.1881L17.5824 15.6548C17.4468 15.5115 17.419 15.2228 17.5217 15.0246C17.6182 14.8386 17.7051 14.6457 17.7802 14.4517C17.861 14.2425 18.0959 14.0704 18.2932 14.076L19.0223 14.0963C19.5366 14.1106 19.9665 13.7039 19.9809 13.1898L20.0141 11.9982C20.0282 11.4836 19.6214 11.0536 19.1073 11.0393ZM15.1141 12.4574C15.0721 13.9643 13.8118 15.1561 12.3048 15.1141C10.798 15.072 9.6061 13.8118 9.64815 12.3049C9.6902 10.798 10.9505 9.60619 12.4574 9.64824C13.9643 9.6903 15.1562 10.9504 15.1141 12.4574Z" fill="#50515A"/>
<circle cx="3.80952" cy="3.80952" r="2.30952" stroke="#50515A" stroke-width="3"/>
<path d="M4.76172 1.89001L16.4387 8.11131" stroke="#50515A" stroke-width="1.5"/>
<path d="M2.02914 5.84485L9.29085 16.9049" stroke="#50515A" stroke-width="1.5"/>
</g>
<defs>
<clipPath id="clip0">
<rect width="20" height="20" fill="white"/>
</clipPath>
</defs>
</svg>
