<svg width="20" height="20" viewBox="0 0 20 20" fill="none" xmlns="http://www.w3.org/2000/svg">
<g clip-path="url(#clip0)">
<path d="M9.99984 1.00012L3.24982 3.57156V10.0001C3.24982 15.143 5.94984 17.0716 9.9998 19.0001C14.0498 17.0716 16.7498 15.143 16.7498 10.0001V3.57156C16.7498 3.57156 9.99984 1.00012 9.99984 1.00012V1.00012ZM8.87484 13.3751L5.49983 10.0001L7.18732 8.31264L8.92316 10.0485L12.5794 6.3922L14.2186 8.03137L8.87484 13.3751Z" fill="#50515A"/>
<path d="M13.1733 6.6521C13.1651 7.08478 13.007 7.31921 12.5946 7.41086C12.4839 7.43547 12.4887 7.42254 12.4127 7.51191C12.2673 7.68293 12.2804 8.01223 12.2804 8.22291C12.2804 8.78509 13.0976 8.01599 13.2248 7.90875C13.578 7.61082 13.9537 7.31308 14.294 7.00117C14.3203 6.97706 14.4893 6.86624 14.5218 6.93135C14.5719 7.03153 14.4547 7.20745 14.4079 7.28042C14.1765 7.64106 13.8261 7.91757 13.5022 8.18984C12.9096 8.68783 12.2332 9.14932 11.7844 9.79371C11.7229 9.88201 11.6629 9.96736 11.5823 10.0399C11.2506 10.3384 10.9353 10.6483 10.6159 10.9603C10.1973 11.3693 9.77614 11.7755 9.35928 12.1858C9.17514 12.367 8.97636 12.5605 8.82465 12.7681C8.78568 12.8215 8.61908 12.9814 8.6097 13.0345C8.5621 13.3043 8.03913 12.8743 7.99791 12.8306C7.58959 12.3983 7.33548 11.8642 6.94519 11.4251C6.7231 11.1753 6.47456 10.9478 6.28013 10.6756C6.14245 10.4828 6.00474 10.2913 5.86859 10.0969C5.74312 9.91761 5.8811 9.58921 5.97883 9.42995C6.14357 9.16148 6.45944 9.03249 6.72289 8.8843C6.92085 8.77295 7.06741 8.76962 7.2318 8.95228C7.44902 9.19363 7.58777 9.4645 7.73519 9.74595C7.86937 10.0021 8.11475 10.181 8.28635 10.411C8.34141 10.4848 8.45042 10.6699 8.54356 10.7031C8.7683 10.7834 9.11305 10.7945 9.34458 10.7454C9.55975 10.6997 9.7256 10.4566 9.84797 10.2934C10.0748 9.99105 10.2376 9.66123 10.4285 9.33809C10.524 9.1765 10.6413 9.03744 10.7262 8.86776C10.8155 8.6891 10.8981 8.50662 11.0128 8.34233C11.0937 8.2263 11.2222 8.03477 11.3673 7.97672C11.3939 7.96609 11.3291 8.01935 11.3104 8.04102C11.1668 8.2073 11.0332 8.38239 10.8933 8.55177C10.4349 9.107 9.9981 9.66791 9.58342 10.2567C9.25602 10.7215 8.88615 11.1386 8.52703 11.5758C8.41211 11.7157 8.24393 11.8112 8.12835 11.9506C8.08029 12.0086 8.06561 12.0481 7.98873 12.0682C7.94398 12.0798 7.99466 12.0271 7.99975 12.0204C8.22688 11.7234 8.45796 11.4291 8.6887 11.1349C9.22572 10.4502 9.84787 9.78835 10.3293 9.06618" stroke="#50515A" stroke-width="2" stroke-linecap="round"/>
<path d="M7 9.6L9.25 12L13 8" stroke="white" stroke-width="1.5" stroke-linecap="round"/>
</g>
<defs>
<clipPath id="clip0">
<rect width="18" height="18" fill="white" transform="translate(1 1)"/>
</clipPath>
</defs>
</svg>
