<svg width="20" height="20" viewBox="0 0 20 20" fill="none" xmlns="http://www.w3.org/2000/svg">
<path fill-rule="evenodd" clip-rule="evenodd" d="M1.5 1C0.671573 1 0 1.67157 0 2.5V12.5C0 13.3284 0.671573 14 1.5 14H18.5C19.3284 14 20 13.3284 20 12.5V2.5C20 1.67157 19.3284 1 18.5 1H1.5ZM3.5 3.88889C2.94772 3.88889 2.5 4.3366 2.5 4.88889V10.1111C2.5 10.6634 2.94772 11.1111 3.5 11.1111H16.5C17.0523 11.1111 17.5 10.6634 17.5 10.1111V4.88889C17.5 4.3366 17.0523 3.88889 16.5 3.88889H3.5Z" fill="#50515A"/>
<rect x="6" y="17" width="8" height="2" fill="#50515A"/>
<rect x="8.5" y="14" width="3" height="3" fill="#50515A"/>
</svg>
