<svg width="20" height="20" viewBox="0 0 20 20" fill="none" xmlns="http://www.w3.org/2000/svg">
<path d="M10 0C4.50742 0 0 4.50742 0 10C0 15.4926 4.50742 20 10 20C15.4926 20 20 15.4926 20 10C20 4.50742 15.4926 0 10 0ZM10 2.34375C13.4545 2.34375 16.4139 4.69668 17.3433 7.85438C17.2901 7.71891 17.1888 7.60187 17.0463 7.53609C15.4315 6.78879 12.8662 5.89844 10 5.89844C7.13383 5.89844 4.56848 6.78879 2.95371 7.53609C2.81125 7.60191 2.70988 7.71891 2.65668 7.85438C3.58609 4.69668 6.54547 2.34375 10 2.34375ZM2.49512 11.5087C2.55383 11.7288 2.73855 11.9038 2.97832 11.938L4.38609 12.1337C6.17883 12.3895 7.61047 13.8212 7.86625 15.6139L8.06195 17.0217C8.09164 17.2294 8.22918 17.3918 8.40793 17.4707C5.45898 16.8381 3.09277 14.4705 2.49512 11.5087ZM10 11.7578C9.0307 11.7578 8.24219 10.9693 8.24219 10C8.24219 9.0307 9.0307 8.24219 10 8.24219C10.9693 8.24219 11.7578 9.0307 11.7578 10C11.7578 10.9693 10.9693 11.7578 10 11.7578ZM11.5921 17.4706C11.7708 17.3917 11.9084 17.2294 11.938 17.0216L12.1337 15.6139C12.3895 13.8211 13.8212 12.3895 15.6139 12.1337L17.0217 11.938C17.2614 11.9038 17.4462 11.7288 17.5049 11.5086C16.9072 14.4705 14.541 16.8381 11.5921 17.4706Z" fill="#50515A"/>
<path d="M10 9.41406C9.67672 9.41406 9.41406 9.67672 9.41406 10C9.41406 10.3233 9.67672 10.5859 10 10.5859C10.3233 10.5859 10.5859 10.3233 10.5859 10C10.5859 9.67672 10.3233 9.41406 10 9.41406Z" fill="#50515A"/>
</svg>
