<svg width="20" height="20" viewBox="0 0 20 20" fill="none" xmlns="http://www.w3.org/2000/svg">
<g clip-path="url(#clip0)">
<path d="M17.2918 8.02849C17.1598 7.7346 16.8676 7.54549 16.5454 7.54549H11.5933L12.9755 2.01667C13.0669 1.65121 12.8969 1.2706 12.5638 1.09469C12.2308 0.918834 11.8205 0.99307 11.5703 1.27463L2.84301 11.0928C2.62897 11.3335 2.57612 11.6776 2.70812 11.9715C2.84017 12.2655 3.13237 12.4546 3.45451 12.4546H8.40663L7.02439 17.9834C6.93303 18.3488 7.10299 18.7295 7.4361 18.9054C7.55697 18.9692 7.68794 19.0001 7.81781 19.0001C8.04581 19.0001 8.27021 18.9048 8.42964 18.7254L17.1569 8.90726C17.371 8.66645 17.4238 8.32243 17.2918 8.02849ZM9.41991 15.1484L10.2483 11.8349C10.3094 11.5904 10.2545 11.3315 10.0994 11.1329C9.94437 10.9343 9.7065 10.8182 9.4545 10.8182H5.27649L10.58 4.85171L9.75166 8.16523C9.69057 8.40965 9.74549 8.66863 9.90051 8.86717C10.0556 9.06583 10.2935 9.18185 10.5454 9.18185H14.7235L9.41991 15.1484Z" fill="#50515A"/>
<path d="M10.4052 5.4823C10.1757 5.77597 9.96622 6.02299 9.78914 6.35185C9.58528 6.73045 9.37909 7.18998 9.08544 7.50809C8.83401 7.78048 8.59348 8.05691 8.33436 8.31604C8.02202 8.62838 7.6576 9.08587 7.22788 9.23534C6.94144 9.33497 6.66944 9.48107 6.41519 9.64287C6.27141 9.73437 5.8309 9.99979 5.80153 10.176C5.76929 10.3694 5.81416 10.3868 6.00293 10.3868C6.40467 10.3868 6.76921 10.301 7.1639 10.2376C7.56186 10.1736 7.95967 10.1547 8.35805 10.0978C8.59824 10.0635 8.99755 10.0049 9.20154 9.87506C9.51943 9.67277 9.6375 9.44794 9.6375 9.08607C9.6375 9.01659 9.54781 8.81633 9.5522 8.85151C9.5804 9.0771 10.3677 9.31566 10.5331 9.35855C10.974 9.47286 11.4945 9.41319 11.9476 9.45095C12.4638 9.49396 13.089 9.57716 13.6038 9.46991C13.8908 9.41011 14.2337 9.23534 14.5207 9.23534C14.6135 9.23534 14.4583 9.2526 14.4378 9.2614C14.2987 9.32102 14.1405 9.42039 14.0113 9.50071C13.5998 9.7565 13.3015 10.1258 12.938 10.4319C12.6864 10.6438 12.528 10.9573 12.3338 11.2209C12.2428 11.3444 12.1504 11.4672 12.059 11.5905C11.9219 11.7753 11.7361 11.8632 11.5614 12.0051C11.2179 12.2842 10.8989 12.5453 10.7227 12.9481C10.6271 13.1666 10.4748 13.4678 10.3199 13.6518C10.1849 13.812 10.0175 14.0433 9.92656 14.2252C9.85901 14.3603 9.78925 14.5141 9.69673 14.6351C9.23548 15.2382 9.94931 14.1829 10.0355 14.0688C10.2026 13.8478 10.3649 13.6336 10.5568 13.4338C10.8673 13.1106 11.0856 12.7344 11.3695 12.3937C11.7882 11.8912 12.2545 11.4173 12.7319 10.9697C13.1193 10.6065 13.6039 10.3014 13.9663 9.91771C14.1357 9.73835 14.3709 9.50343 14.5847 9.37276C14.6824 9.31308 14.737 9.17319 14.8193 9.1074C14.853 9.08043 14.8457 9.02684 14.7956 9.02684C14.6785 9.02684 14.5598 9.17589 14.4899 9.24482C13.816 9.90999 13.1875 10.6145 12.5944 11.3535C12.1203 11.9444 11.5974 12.4964 11.1302 13.095C10.9503 13.3255 10.676 13.6053 10.5663 13.8745C10.4799 14.0865 10.2257 14.3512 10.045 14.4905C9.96188 14.5547 9.40029 15.0531 9.39109 15.0071C9.35822 14.8427 9.53037 14.6355 9.59485 14.4953C9.7681 14.1185 9.96016 13.7543 10.1516 13.3864C10.504 12.7095 10.8749 11.9361 11.0781 11.1972C11.1189 11.0485 11.2205 10.631 11.0354 10.5669C10.8078 10.4881 10.5584 10.5148 10.3199 10.5148C10.0293 10.5148 9.89898 10.1536 9.7844 9.91771C9.70173 9.7475 9.71539 9.5476 9.61618 9.38224C9.52701 9.23363 9.46528 9.03183 9.39109 8.8752C9.36853 8.82758 9.39564 8.77059 9.37213 8.72356C9.32434 8.62797 9.24013 8.57735 9.16837 8.50558C9.09531 8.43252 9.02306 8.24575 8.95513 8.21178" stroke="#50515A" stroke-width="2" stroke-linecap="round"/>
</g>
<defs>
<clipPath id="clip0">
<rect width="18" height="18" fill="white" transform="translate(1 1)"/>
</clipPath>
</defs>
</svg>
