<svg width="32" height="32" viewBox="0 0 32 32" fill="none" xmlns="http://www.w3.org/2000/svg">
<mask id="mask0" style="mask-type:alpha" maskUnits="userSpaceOnUse" x="0" y="0" width="32" height="32">
<rect width="32" height="32" fill="#C4C4C4"/>
</mask>
<g mask="url(#mask0)">
<path d="M26.9566 19.9194C26.434 19.2864 25.8402 18.7191 25.2659 18.1704C25.0618 17.9753 24.8506 17.7736 24.6471 17.573C24.0628 16.9965 24.0415 16.7799 24.5041 16.125C24.8242 15.6736 25.1636 15.2216 25.4917 14.7845C25.7894 14.3879 26.0973 13.9778 26.3923 13.5663L26.4529 13.4817C27.0168 12.6943 27.5999 11.8801 27.9103 10.8979C27.9909 10.6388 28.0755 10.2575 27.882 9.93859C27.6887 9.61999 27.3136 9.52279 27.0482 9.4774C26.9169 9.45493 26.7866 9.45186 26.6656 9.45186L22.9728 9.4492L22.9423 9.44893C22.3839 9.44893 22.0076 9.71446 21.792 10.2608C21.5862 10.7828 21.36 11.3386 21.102 11.8672C20.5885 12.9196 19.9363 14.1318 18.9927 15.1428L18.9528 15.1858C18.8413 15.3067 18.7151 15.4435 18.6228 15.4435C18.6087 15.4435 18.5933 15.4408 18.5758 15.4353C18.3804 15.3584 18.2492 14.8809 18.2551 14.6587C18.2552 14.6557 18.2552 14.6526 18.2552 14.6495L18.2527 10.3423C18.2527 10.3273 18.2516 10.3125 18.2497 10.2977C18.1557 9.59753 17.9477 9.16166 17.1614 9.00627C17.1405 9.00207 17.1192 9 17.0979 9H13.258C12.6325 9 12.2877 9.2566 11.9637 9.64066C11.8763 9.74333 11.6942 9.95706 11.7844 10.2163C11.876 10.4795 12.1732 10.5357 12.27 10.554C12.7504 10.6463 13.0212 10.9428 13.0979 11.4609C13.2318 12.3606 13.2482 13.321 13.1496 14.4831C13.1222 14.8061 13.0678 15.0556 12.9782 15.2687C12.9574 15.3185 12.8836 15.4808 12.8084 15.4809C12.7845 15.4809 12.7153 15.4714 12.5893 15.3838C12.2914 15.1779 12.0735 14.884 11.8194 14.521C10.9551 13.2883 10.2297 11.9303 9.60144 10.3685C9.36845 9.79359 8.9333 9.47173 8.37562 9.46226C7.76283 9.45286 7.20726 9.44833 6.67739 9.44833C6.09843 9.44833 5.56168 9.45373 5.03756 9.46473C4.58887 9.47273 4.27852 9.60846 4.11521 9.86846C3.95165 10.1287 3.96228 10.4705 4.14686 10.8842C5.62438 14.199 6.96403 16.6092 8.49069 18.6993C9.56042 20.1618 10.6334 21.1742 11.867 21.8849C13.1667 22.6352 14.6232 23 16.3196 23C16.5119 23 16.7108 22.9953 16.9113 22.9858C17.897 22.9373 18.2628 22.5773 18.309 21.6087C18.331 21.1137 18.3846 20.5946 18.6258 20.1518C18.778 19.8729 18.9199 19.8729 18.9665 19.8729C19.0564 19.8729 19.1677 19.9146 19.2874 19.9928C19.5019 20.1342 19.6859 20.3235 19.8367 20.4889C19.9787 20.646 20.1191 20.8048 20.2596 20.9636C20.5628 21.3063 20.8763 21.6606 21.2039 21.9967C21.9208 22.7327 22.7105 23.0565 23.6176 22.9862H27.0034C27.0106 22.9862 27.0178 22.9859 27.025 22.9855C27.3624 22.963 27.6546 22.7741 27.8267 22.4673C28.0399 22.0873 28.0356 21.6024 27.8152 21.17C27.5651 20.6811 27.2408 20.2634 26.9566 19.9194Z" fill="white"/>
</g>
</svg>
