<svg width="32" height="32" viewBox="0 0 32 32" fill="none" xmlns="http://www.w3.org/2000/svg">
<mask id="mask0" style="mask-type:alpha" maskUnits="userSpaceOnUse" x="0" y="0" width="32" height="32">
<rect width="32" height="32" fill="#C4C4C4"/>
</mask>
<g mask="url(#mask0)">
<path d="M16.0022 7H15.9978C11.0354 7 7 11.0365 7 16C7 17.9688 7.6345 19.7935 8.71337 21.2751L7.59175 24.6186L11.0511 23.5128C12.4742 24.4555 14.1719 25 16.0022 25C20.9646 25 25 20.9624 25 16C25 11.0376 20.9646 7 16.0022 7ZM21.2391 19.7091C21.022 20.3223 20.1602 20.8307 19.4729 20.9792C19.0026 21.0794 18.3884 21.1593 16.3206 20.302C13.6757 19.2063 11.9725 16.5186 11.8398 16.3442C11.7126 16.1699 10.771 14.9211 10.771 13.6296C10.771 12.3381 11.4269 11.7092 11.6912 11.4392C11.9084 11.2176 12.2673 11.1164 12.6115 11.1164C12.7229 11.1164 12.823 11.122 12.913 11.1265C13.1774 11.1378 13.3101 11.1535 13.4845 11.5709C13.7016 12.094 14.2304 13.3855 14.2934 13.5182C14.3575 13.651 14.4216 13.831 14.3316 14.0054C14.2473 14.1854 14.173 14.2652 14.0402 14.4183C13.9075 14.5712 13.7815 14.6883 13.6487 14.8525C13.5272 14.9954 13.39 15.1484 13.543 15.4128C13.696 15.6715 14.2248 16.5344 15.0033 17.2274C16.0079 18.1217 16.8224 18.4075 17.1137 18.529C17.3309 18.619 17.5896 18.5976 17.7483 18.4289C17.9496 18.2118 18.1982 17.8518 18.4514 17.4974C18.6314 17.2431 18.8586 17.2116 19.0971 17.3016C19.3401 17.386 20.626 18.0216 20.8904 18.1532C21.1547 18.286 21.3291 18.349 21.3932 18.4604C21.4562 18.5718 21.4562 19.0949 21.2391 19.7091Z" fill="white"/>
</g>
</svg>
