<svg width="40" height="40" viewBox="0 0 40 40" fill="none" xmlns="http://www.w3.org/2000/svg">
<path fill-rule="evenodd" clip-rule="evenodd" d="M20 40.0002C31.0457 40.0002 40 31.0459 40 20.0002C40 8.95455 31.0457 0.000244141 20 0.000244141C8.9543 0.000244141 0 8.95455 0 20.0002C0 31.0459 8.9543 40.0002 20 40.0002ZM26.8177 18.0912C27.1966 18.0912 27.5185 18.2237 27.7837 18.4889C28.049 18.7541 28.182 19.0761 28.1818 19.4548V27.6367C28.1818 28.0153 28.049 28.3375 27.7841 28.6027C27.5188 28.8678 27.197 29.0002 26.818 29.0002H13.1819C12.8033 29.0002 12.4812 28.8676 12.2161 28.6027C11.9509 28.3375 11.8184 28.0153 11.8184 27.6367V19.4549C11.8184 19.0759 11.9509 18.7539 12.2161 18.4889C12.4812 18.2237 12.8033 18.0912 13.1819 18.0912H13.6364V15.3638C13.6364 13.6214 14.2613 12.1253 15.5113 10.8753C16.7612 9.62527 18.2574 9.00024 20 9.00024C21.7426 9.00024 23.2386 9.62527 24.4885 10.8753C25.7386 12.1253 26.3634 13.6214 26.3634 15.3638V18.0912H26.8177ZM16.3637 15.3638V18.0912H23.6363V15.3638C23.6363 14.3601 23.2812 13.503 22.5711 12.7929C21.8608 12.0826 21.0041 11.7277 20.0001 11.7277C18.9963 11.7277 18.1394 12.0827 17.4291 12.7929C16.7189 13.503 16.3637 14.3601 16.3637 15.3638ZM22 23.0002C22 23.7405 21.5978 24.3869 21 24.7327V26.0002C21 26.5525 20.5523 27.0002 20 27.0002C19.4477 27.0002 19 26.5525 19 26.0002V24.7327C18.4022 24.3869 18 23.7405 18 23.0002C18 21.8957 18.8954 21.0002 20 21.0002C21.1046 21.0002 22 21.8957 22 23.0002Z" fill="white"/>
</svg>
