<svg width="180" height="58" viewBox="0 0 180 58" fill="none" xmlns="http://www.w3.org/2000/svg">
<path fill-rule="evenodd" clip-rule="evenodd" d="M40.6298 39.4301C37.7198 42.6653 33.5028 44.6994 28.8111 44.6994C20.0311 44.6994 12.9136 37.5758 12.9136 28.7884C12.9136 20.001 20.0311 12.8774 28.8111 12.8774C33.5031 12.8774 37.7203 14.9118 40.6303 18.1472H31.9827L31.8155 18.1472H25.1821C24.547 18.1472 23.9741 18.5287 23.7291 19.1146L19.9387 28.1813C19.7762 28.5699 19.7762 29.0075 19.9387 29.3961L23.7291 38.4627C23.9741 39.0487 24.547 39.4301 25.1821 39.4301H31.8155H31.9827H40.6298Z" fill="#FC3637"/>
<g clip-path="url(#clip0)">
<mask id="path-2-outside-1" maskUnits="userSpaceOnUse" x="26.3068" y="21.8423" width="154" height="14" fill="black">
<rect fill="white" x="26.3068" y="21.8423" width="154" height="14"/>
<path d="M30.8304 26.0519V31.6415H40.015V34.8511H29.4248C28.8343 34.8511 28.3337 34.6182 27.9229 34.1524C27.5121 33.6866 27.3068 33.1189 27.3068 32.4494V25.2441C27.3068 24.5745 27.5121 24.0068 27.9229 23.541C28.3337 23.0752 28.8343 22.8423 29.4248 22.8423H40.015V26.0519H30.8304ZM53.297 22.8423C53.8875 22.8423 54.3881 23.0752 54.7989 23.541C55.2097 24.0068 55.4151 24.5745 55.4151 25.2441V27.7113C55.4151 27.9442 55.3445 28.1771 55.2033 28.41C55.0749 28.6284 54.908 28.7739 54.7026 28.8467C54.908 28.9195 55.0749 29.0723 55.2033 29.3052C55.3445 29.5236 55.4151 29.7492 55.4151 29.9821V32.4494C55.4151 33.1189 55.2097 33.6866 54.7989 34.1524C54.3881 34.6182 53.8875 34.8511 53.297 34.8511H42.7069V22.8423H53.297ZM51.8914 31.6415V30.4406H46.2306V31.6415H51.8914ZM51.8914 27.2528V26.0519H46.2306V27.2528H51.8914ZM67.2917 31.6415V26.0519H61.6308V31.6415H67.2917ZM68.6973 22.8423C69.2878 22.8423 69.7884 23.0752 70.1992 23.541C70.61 24.0068 70.8153 24.5745 70.8153 25.2441V32.4494C70.8153 33.1189 70.61 33.6866 70.1992 34.1524C69.7884 34.6182 69.2878 34.8511 68.6973 34.8511H60.2251C59.6347 34.8511 59.134 34.6182 58.7233 34.1524C58.3125 33.6866 58.1071 33.1189 58.1071 32.4494V25.2441C58.1071 24.5745 58.3125 24.0068 58.7233 23.541C59.134 23.0752 59.6347 22.8423 60.2251 22.8423H68.6973ZM86.2154 22.8423V32.4494C86.2154 33.1189 86.01 33.6866 85.5992 34.1524C85.1885 34.6182 84.6879 34.8511 84.0974 34.8511H82.2874L77.0308 27.4056V34.8511H73.5072V25.2441C73.5072 24.5745 73.7126 24.0068 74.1233 23.541C74.5341 23.0752 75.0347 22.8423 75.6252 22.8423H77.4352L82.6918 30.2878V22.8423H86.2154ZM103.021 25.2441V34.8511H99.4784V28.5629L95.9547 34.8511L92.4311 28.5629V34.8511H88.8882V25.2441C88.8882 24.5745 89.0936 24.0068 89.5044 23.541C89.928 23.0752 90.4286 22.8423 91.0062 22.8423H92.5659L95.9547 28.8904L99.3436 22.8423H100.903C101.481 22.8423 101.975 23.0752 102.386 23.541C102.809 24.0068 103.021 24.5745 103.021 25.2441ZM116.194 22.8423C116.771 22.8423 117.266 23.0752 117.676 23.541C118.1 24.0068 118.312 24.5745 118.312 25.2441V34.8511H114.769V30.8555H109.127V34.8511H105.604V25.2441C105.604 24.5745 105.809 24.0068 106.22 23.541C106.631 23.0752 107.131 22.8423 107.722 22.8423H116.194ZM114.769 27.6458V26.0519H109.127V27.6458H114.769ZM124.585 26.0519V31.6415H133.77V34.8511H123.18C122.589 34.8511 122.089 34.6182 121.678 34.1524C121.267 33.6866 121.062 33.1189 121.062 32.4494V25.2441C121.062 24.5745 121.267 24.0068 121.678 23.541C122.089 23.0752 122.589 22.8423 123.18 22.8423H133.77V26.0519H124.585ZM149.305 22.8423V26.0519H144.703V34.8511H141.179V26.0519H136.596V22.8423H149.305ZM155.386 26.0519V27.2528H162.991V30.4406H155.386V31.6415H164.57V34.8511H153.98C153.39 34.8511 152.889 34.6182 152.478 34.1524C152.067 33.6866 151.862 33.1189 151.862 32.4494V25.2441C151.862 24.5745 152.067 24.0068 152.478 23.541C152.889 23.0752 153.39 22.8423 153.98 22.8423H164.57V26.0519H155.386ZM177.852 22.8423C178.443 22.8423 178.943 23.0752 179.354 23.541C179.765 24.0068 179.97 24.5745 179.97 25.2441V28.4537C179.97 29.1087 179.765 29.6764 179.354 30.1568C178.943 30.6226 178.443 30.8555 177.852 30.8555H170.786V34.8511H167.262V22.8423H177.852ZM176.447 27.6458V26.0519H170.786V27.6458H176.447Z"/>
</mask>
<path d="M30.8304 26.0519V31.6415H40.015V34.8511H29.4248C28.8343 34.8511 28.3337 34.6182 27.9229 34.1524C27.5121 33.6866 27.3068 33.1189 27.3068 32.4494V25.2441C27.3068 24.5745 27.5121 24.0068 27.9229 23.541C28.3337 23.0752 28.8343 22.8423 29.4248 22.8423H40.015V26.0519H30.8304ZM53.297 22.8423C53.8875 22.8423 54.3881 23.0752 54.7989 23.541C55.2097 24.0068 55.4151 24.5745 55.4151 25.2441V27.7113C55.4151 27.9442 55.3445 28.1771 55.2033 28.41C55.0749 28.6284 54.908 28.7739 54.7026 28.8467C54.908 28.9195 55.0749 29.0723 55.2033 29.3052C55.3445 29.5236 55.4151 29.7492 55.4151 29.9821V32.4494C55.4151 33.1189 55.2097 33.6866 54.7989 34.1524C54.3881 34.6182 53.8875 34.8511 53.297 34.8511H42.7069V22.8423H53.297ZM51.8914 31.6415V30.4406H46.2306V31.6415H51.8914ZM51.8914 27.2528V26.0519H46.2306V27.2528H51.8914ZM67.2917 31.6415V26.0519H61.6308V31.6415H67.2917ZM68.6973 22.8423C69.2878 22.8423 69.7884 23.0752 70.1992 23.541C70.61 24.0068 70.8153 24.5745 70.8153 25.2441V32.4494C70.8153 33.1189 70.61 33.6866 70.1992 34.1524C69.7884 34.6182 69.2878 34.8511 68.6973 34.8511H60.2251C59.6347 34.8511 59.134 34.6182 58.7233 34.1524C58.3125 33.6866 58.1071 33.1189 58.1071 32.4494V25.2441C58.1071 24.5745 58.3125 24.0068 58.7233 23.541C59.134 23.0752 59.6347 22.8423 60.2251 22.8423H68.6973ZM86.2154 22.8423V32.4494C86.2154 33.1189 86.01 33.6866 85.5992 34.1524C85.1885 34.6182 84.6879 34.8511 84.0974 34.8511H82.2874L77.0308 27.4056V34.8511H73.5072V25.2441C73.5072 24.5745 73.7126 24.0068 74.1233 23.541C74.5341 23.0752 75.0347 22.8423 75.6252 22.8423H77.4352L82.6918 30.2878V22.8423H86.2154ZM103.021 25.2441V34.8511H99.4784V28.5629L95.9547 34.8511L92.4311 28.5629V34.8511H88.8882V25.2441C88.8882 24.5745 89.0936 24.0068 89.5044 23.541C89.928 23.0752 90.4286 22.8423 91.0062 22.8423H92.5659L95.9547 28.8904L99.3436 22.8423H100.903C101.481 22.8423 101.975 23.0752 102.386 23.541C102.809 24.0068 103.021 24.5745 103.021 25.2441ZM116.194 22.8423C116.771 22.8423 117.266 23.0752 117.676 23.541C118.1 24.0068 118.312 24.5745 118.312 25.2441V34.8511H114.769V30.8555H109.127V34.8511H105.604V25.2441C105.604 24.5745 105.809 24.0068 106.22 23.541C106.631 23.0752 107.131 22.8423 107.722 22.8423H116.194ZM114.769 27.6458V26.0519H109.127V27.6458H114.769ZM124.585 26.0519V31.6415H133.77V34.8511H123.18C122.589 34.8511 122.089 34.6182 121.678 34.1524C121.267 33.6866 121.062 33.1189 121.062 32.4494V25.2441C121.062 24.5745 121.267 24.0068 121.678 23.541C122.089 23.0752 122.589 22.8423 123.18 22.8423H133.77V26.0519H124.585ZM149.305 22.8423V26.0519H144.703V34.8511H141.179V26.0519H136.596V22.8423H149.305ZM155.386 26.0519V27.2528H162.991V30.4406H155.386V31.6415H164.57V34.8511H153.98C153.39 34.8511 152.889 34.6182 152.478 34.1524C152.067 33.6866 151.862 33.1189 151.862 32.4494V25.2441C151.862 24.5745 152.067 24.0068 152.478 23.541C152.889 23.0752 153.39 22.8423 153.98 22.8423H164.57V26.0519H155.386ZM177.852 22.8423C178.443 22.8423 178.943 23.0752 179.354 23.541C179.765 24.0068 179.97 24.5745 179.97 25.2441V28.4537C179.97 29.1087 179.765 29.6764 179.354 30.1568C178.943 30.6226 178.443 30.8555 177.852 30.8555H170.786V34.8511H167.262V22.8423H177.852ZM176.447 27.6458V26.0519H170.786V27.6458H176.447Z" fill="#3386FF"/>
<path d="M30.8304 26.0519V31.6415H40.015V34.8511H29.4248C28.8343 34.8511 28.3337 34.6182 27.9229 34.1524C27.5121 33.6866 27.3068 33.1189 27.3068 32.4494V25.2441C27.3068 24.5745 27.5121 24.0068 27.9229 23.541C28.3337 23.0752 28.8343 22.8423 29.4248 22.8423H40.015V26.0519H30.8304ZM53.297 22.8423C53.8875 22.8423 54.3881 23.0752 54.7989 23.541C55.2097 24.0068 55.4151 24.5745 55.4151 25.2441V27.7113C55.4151 27.9442 55.3445 28.1771 55.2033 28.41C55.0749 28.6284 54.908 28.7739 54.7026 28.8467C54.908 28.9195 55.0749 29.0723 55.2033 29.3052C55.3445 29.5236 55.4151 29.7492 55.4151 29.9821V32.4494C55.4151 33.1189 55.2097 33.6866 54.7989 34.1524C54.3881 34.6182 53.8875 34.8511 53.297 34.8511H42.7069V22.8423H53.297ZM51.8914 31.6415V30.4406H46.2306V31.6415H51.8914ZM51.8914 27.2528V26.0519H46.2306V27.2528H51.8914ZM67.2917 31.6415V26.0519H61.6308V31.6415H67.2917ZM68.6973 22.8423C69.2878 22.8423 69.7884 23.0752 70.1992 23.541C70.61 24.0068 70.8153 24.5745 70.8153 25.2441V32.4494C70.8153 33.1189 70.61 33.6866 70.1992 34.1524C69.7884 34.6182 69.2878 34.8511 68.6973 34.8511H60.2251C59.6347 34.8511 59.134 34.6182 58.7233 34.1524C58.3125 33.6866 58.1071 33.1189 58.1071 32.4494V25.2441C58.1071 24.5745 58.3125 24.0068 58.7233 23.541C59.134 23.0752 59.6347 22.8423 60.2251 22.8423H68.6973ZM86.2154 22.8423V32.4494C86.2154 33.1189 86.01 33.6866 85.5992 34.1524C85.1885 34.6182 84.6879 34.8511 84.0974 34.8511H82.2874L77.0308 27.4056V34.8511H73.5072V25.2441C73.5072 24.5745 73.7126 24.0068 74.1233 23.541C74.5341 23.0752 75.0347 22.8423 75.6252 22.8423H77.4352L82.6918 30.2878V22.8423H86.2154ZM103.021 25.2441V34.8511H99.4784V28.5629L95.9547 34.8511L92.4311 28.5629V34.8511H88.8882V25.2441C88.8882 24.5745 89.0936 24.0068 89.5044 23.541C89.928 23.0752 90.4286 22.8423 91.0062 22.8423H92.5659L95.9547 28.8904L99.3436 22.8423H100.903C101.481 22.8423 101.975 23.0752 102.386 23.541C102.809 24.0068 103.021 24.5745 103.021 25.2441ZM116.194 22.8423C116.771 22.8423 117.266 23.0752 117.676 23.541C118.1 24.0068 118.312 24.5745 118.312 25.2441V34.8511H114.769V30.8555H109.127V34.8511H105.604V25.2441C105.604 24.5745 105.809 24.0068 106.22 23.541C106.631 23.0752 107.131 22.8423 107.722 22.8423H116.194ZM114.769 27.6458V26.0519H109.127V27.6458H114.769ZM124.585 26.0519V31.6415H133.77V34.8511H123.18C122.589 34.8511 122.089 34.6182 121.678 34.1524C121.267 33.6866 121.062 33.1189 121.062 32.4494V25.2441C121.062 24.5745 121.267 24.0068 121.678 23.541C122.089 23.0752 122.589 22.8423 123.18 22.8423H133.77V26.0519H124.585ZM149.305 22.8423V26.0519H144.703V34.8511H141.179V26.0519H136.596V22.8423H149.305ZM155.386 26.0519V27.2528H162.991V30.4406H155.386V31.6415H164.57V34.8511H153.98C153.39 34.8511 152.889 34.6182 152.478 34.1524C152.067 33.6866 151.862 33.1189 151.862 32.4494V25.2441C151.862 24.5745 152.067 24.0068 152.478 23.541C152.889 23.0752 153.39 22.8423 153.98 22.8423H164.57V26.0519H155.386ZM177.852 22.8423C178.443 22.8423 178.943 23.0752 179.354 23.541C179.765 24.0068 179.97 24.5745 179.97 25.2441V28.4537C179.97 29.1087 179.765 29.6764 179.354 30.1568C178.943 30.6226 178.443 30.8555 177.852 30.8555H170.786V34.8511H167.262V22.8423H177.852ZM176.447 27.6458V26.0519H170.786V27.6458H176.447Z" stroke="#3386FF" stroke-width="0.31496" mask="url(#path-2-outside-1)"/>
</g>
<g clip-path="url(#clip1)">
<mask id="path-3-outside-2" maskUnits="userSpaceOnUse" x="-20.4662" y="21.8442" width="154" height="14" fill="black">
<rect fill="white" x="-20.4662" y="21.8442" width="154" height="14"/>
<path d="M129.01 26.0539V31.6434H119.826V34.8531H130.416C131.006 34.8531 131.507 34.6202 131.918 34.1544C132.328 33.6886 132.534 33.1209 132.534 32.4513V25.246C132.534 24.5764 132.328 24.0087 131.918 23.5429C131.507 23.0771 131.006 22.8442 130.416 22.8442H119.826V26.0539H129.01ZM106.543 22.8442C105.953 22.8442 105.452 23.0771 105.042 23.5429C104.631 24.0087 104.425 24.5764 104.425 25.246V27.7133C104.425 27.9462 104.496 28.1791 104.637 28.412C104.766 28.6303 104.933 28.7759 105.138 28.8487C104.933 28.9214 104.766 29.0743 104.637 29.3072C104.496 29.5255 104.425 29.7511 104.425 29.984V32.4513C104.425 33.1209 104.631 33.6886 105.042 34.1544C105.452 34.6202 105.953 34.8531 106.543 34.8531H117.134V22.8442H106.543ZM107.949 31.6434V30.4426H113.61V31.6434H107.949ZM107.949 27.2548V26.0539H113.61V27.2548H107.949ZM92.5488 31.6434V26.0539H98.2098V31.6434H92.5488ZM91.1432 22.8442C90.5527 22.8442 90.0521 23.0771 89.6413 23.5429C89.2306 24.0087 89.0252 24.5764 89.0252 25.246V32.4513C89.0252 33.1209 89.2306 33.6886 89.6413 34.1544C90.0521 34.6202 90.5527 34.8531 91.1432 34.8531H99.6154C100.206 34.8531 100.706 34.6202 101.117 34.1544C101.528 33.6886 101.733 33.1209 101.733 32.4513V25.246C101.733 24.5764 101.528 24.0087 101.117 23.5429C100.706 23.0771 100.206 22.8442 99.6154 22.8442H91.1432ZM73.6251 22.8442V32.4513C73.6251 33.1209 73.8305 33.6886 74.2413 34.1544C74.652 34.6202 75.1527 34.8531 75.7431 34.8531H77.5531L82.8097 27.4076V34.8531H86.3333V25.246C86.3333 24.5764 86.128 24.0087 85.7172 23.5429C85.3064 23.0771 84.8058 22.8442 84.2153 22.8442H82.4053L77.1488 30.2897V22.8442H73.6251ZM56.8192 25.246V34.8531H60.3621V28.5648L63.8858 34.8531L67.4094 28.5648V34.8531H70.9523V25.246C70.9523 24.5764 70.7469 24.0087 70.3362 23.5429C69.9126 23.0771 69.4119 22.8442 68.8343 22.8442H67.2746L63.8858 28.8923L60.4969 22.8442H58.9373C58.3596 22.8442 57.8654 23.0771 57.4546 23.5429C57.031 24.0087 56.8192 24.5764 56.8192 25.246ZM43.6467 22.8442C43.0691 22.8442 42.5749 23.0771 42.1641 23.5429C41.7405 24.0087 41.5287 24.5764 41.5287 25.246V34.8531H45.0716V30.8574H50.7133V34.8531H54.2369V25.246C54.2369 24.5764 54.0315 24.0087 53.6208 23.5429C53.21 23.0771 52.7094 22.8442 52.1189 22.8442H43.6467ZM45.0716 27.6478V26.0539H50.7133V27.6478H45.0716ZM35.2552 26.0539V31.6434H26.0707V34.8531H36.6609C37.2513 34.8531 37.752 34.6202 38.1627 34.1544C38.5735 33.6886 38.7789 33.1209 38.7789 32.4513V25.246C38.7789 24.5764 38.5735 24.0087 38.1627 23.5429C37.752 23.0771 37.2513 22.8442 36.6609 22.8442H26.0707V26.0539H35.2552ZM10.5358 22.8442V26.0539H15.1377V34.8531H18.6614V26.0539H23.244V22.8442H10.5358ZM4.4549 26.0539V27.2548H-3.15079V30.4426H4.4549V31.6434H-4.72969V34.8531H5.8605C6.45099 34.8531 6.95162 34.6202 7.36239 34.1544C7.77316 33.6886 7.97855 33.1209 7.97855 32.4513V25.246C7.97855 24.5764 7.77316 24.0087 7.36239 23.5429C6.95162 23.0771 6.45099 22.8442 5.8605 22.8442H-4.72969V26.0539H4.4549ZM-18.0117 22.8442C-18.6022 22.8442 -19.1028 23.0771 -19.5136 23.5429C-19.9244 24.0087 -20.1297 24.5764 -20.1297 25.246V28.4556C-20.1297 29.1107 -19.9244 29.6784 -19.5136 30.1587C-19.1028 30.6245 -18.6022 30.8574 -18.0117 30.8574H-10.9452V34.8531H-7.42151V22.8442H-18.0117ZM-16.6061 27.6478V26.0539H-10.9452V27.6478H-16.6061Z"/>
</mask>
<path d="M129.01 26.0539V31.6434H119.826V34.8531H130.416C131.006 34.8531 131.507 34.6202 131.918 34.1544C132.328 33.6886 132.534 33.1209 132.534 32.4513V25.246C132.534 24.5764 132.328 24.0087 131.918 23.5429C131.507 23.0771 131.006 22.8442 130.416 22.8442H119.826V26.0539H129.01ZM106.543 22.8442C105.953 22.8442 105.452 23.0771 105.042 23.5429C104.631 24.0087 104.425 24.5764 104.425 25.246V27.7133C104.425 27.9462 104.496 28.1791 104.637 28.412C104.766 28.6303 104.933 28.7759 105.138 28.8487C104.933 28.9214 104.766 29.0743 104.637 29.3072C104.496 29.5255 104.425 29.7511 104.425 29.984V32.4513C104.425 33.1209 104.631 33.6886 105.042 34.1544C105.452 34.6202 105.953 34.8531 106.543 34.8531H117.134V22.8442H106.543ZM107.949 31.6434V30.4426H113.61V31.6434H107.949ZM107.949 27.2548V26.0539H113.61V27.2548H107.949ZM92.5488 31.6434V26.0539H98.2098V31.6434H92.5488ZM91.1432 22.8442C90.5527 22.8442 90.0521 23.0771 89.6413 23.5429C89.2306 24.0087 89.0252 24.5764 89.0252 25.246V32.4513C89.0252 33.1209 89.2306 33.6886 89.6413 34.1544C90.0521 34.6202 90.5527 34.8531 91.1432 34.8531H99.6154C100.206 34.8531 100.706 34.6202 101.117 34.1544C101.528 33.6886 101.733 33.1209 101.733 32.4513V25.246C101.733 24.5764 101.528 24.0087 101.117 23.5429C100.706 23.0771 100.206 22.8442 99.6154 22.8442H91.1432ZM73.6251 22.8442V32.4513C73.6251 33.1209 73.8305 33.6886 74.2413 34.1544C74.652 34.6202 75.1527 34.8531 75.7431 34.8531H77.5531L82.8097 27.4076V34.8531H86.3333V25.246C86.3333 24.5764 86.128 24.0087 85.7172 23.5429C85.3064 23.0771 84.8058 22.8442 84.2153 22.8442H82.4053L77.1488 30.2897V22.8442H73.6251ZM56.8192 25.246V34.8531H60.3621V28.5648L63.8858 34.8531L67.4094 28.5648V34.8531H70.9523V25.246C70.9523 24.5764 70.7469 24.0087 70.3362 23.5429C69.9126 23.0771 69.4119 22.8442 68.8343 22.8442H67.2746L63.8858 28.8923L60.4969 22.8442H58.9373C58.3596 22.8442 57.8654 23.0771 57.4546 23.5429C57.031 24.0087 56.8192 24.5764 56.8192 25.246ZM43.6467 22.8442C43.0691 22.8442 42.5749 23.0771 42.1641 23.5429C41.7405 24.0087 41.5287 24.5764 41.5287 25.246V34.8531H45.0716V30.8574H50.7133V34.8531H54.2369V25.246C54.2369 24.5764 54.0315 24.0087 53.6208 23.5429C53.21 23.0771 52.7094 22.8442 52.1189 22.8442H43.6467ZM45.0716 27.6478V26.0539H50.7133V27.6478H45.0716ZM35.2552 26.0539V31.6434H26.0707V34.8531H36.6609C37.2513 34.8531 37.752 34.6202 38.1627 34.1544C38.5735 33.6886 38.7789 33.1209 38.7789 32.4513V25.246C38.7789 24.5764 38.5735 24.0087 38.1627 23.5429C37.752 23.0771 37.2513 22.8442 36.6609 22.8442H26.0707V26.0539H35.2552ZM10.5358 22.8442V26.0539H15.1377V34.8531H18.6614V26.0539H23.244V22.8442H10.5358ZM4.4549 26.0539V27.2548H-3.15079V30.4426H4.4549V31.6434H-4.72969V34.8531H5.8605C6.45099 34.8531 6.95162 34.6202 7.36239 34.1544C7.77316 33.6886 7.97855 33.1209 7.97855 32.4513V25.246C7.97855 24.5764 7.77316 24.0087 7.36239 23.5429C6.95162 23.0771 6.45099 22.8442 5.8605 22.8442H-4.72969V26.0539H4.4549ZM-18.0117 22.8442C-18.6022 22.8442 -19.1028 23.0771 -19.5136 23.5429C-19.9244 24.0087 -20.1297 24.5764 -20.1297 25.246V28.4556C-20.1297 29.1107 -19.9244 29.6784 -19.5136 30.1587C-19.1028 30.6245 -18.6022 30.8574 -18.0117 30.8574H-10.9452V34.8531H-7.42151V22.8442H-18.0117ZM-16.6061 27.6478V26.0539H-10.9452V27.6478H-16.6061Z" fill="#3386FF"/>
<path d="M129.01 26.0539V31.6434H119.826V34.8531H130.416C131.006 34.8531 131.507 34.6202 131.918 34.1544C132.328 33.6886 132.534 33.1209 132.534 32.4513V25.246C132.534 24.5764 132.328 24.0087 131.918 23.5429C131.507 23.0771 131.006 22.8442 130.416 22.8442H119.826V26.0539H129.01ZM106.543 22.8442C105.953 22.8442 105.452 23.0771 105.042 23.5429C104.631 24.0087 104.425 24.5764 104.425 25.246V27.7133C104.425 27.9462 104.496 28.1791 104.637 28.412C104.766 28.6303 104.933 28.7759 105.138 28.8487C104.933 28.9214 104.766 29.0743 104.637 29.3072C104.496 29.5255 104.425 29.7511 104.425 29.984V32.4513C104.425 33.1209 104.631 33.6886 105.042 34.1544C105.452 34.6202 105.953 34.8531 106.543 34.8531H117.134V22.8442H106.543ZM107.949 31.6434V30.4426H113.61V31.6434H107.949ZM107.949 27.2548V26.0539H113.61V27.2548H107.949ZM92.5488 31.6434V26.0539H98.2098V31.6434H92.5488ZM91.1432 22.8442C90.5527 22.8442 90.0521 23.0771 89.6413 23.5429C89.2306 24.0087 89.0252 24.5764 89.0252 25.246V32.4513C89.0252 33.1209 89.2306 33.6886 89.6413 34.1544C90.0521 34.6202 90.5527 34.8531 91.1432 34.8531H99.6154C100.206 34.8531 100.706 34.6202 101.117 34.1544C101.528 33.6886 101.733 33.1209 101.733 32.4513V25.246C101.733 24.5764 101.528 24.0087 101.117 23.5429C100.706 23.0771 100.206 22.8442 99.6154 22.8442H91.1432ZM73.6251 22.8442V32.4513C73.6251 33.1209 73.8305 33.6886 74.2413 34.1544C74.652 34.6202 75.1527 34.8531 75.7431 34.8531H77.5531L82.8097 27.4076V34.8531H86.3333V25.246C86.3333 24.5764 86.128 24.0087 85.7172 23.5429C85.3064 23.0771 84.8058 22.8442 84.2153 22.8442H82.4053L77.1488 30.2897V22.8442H73.6251ZM56.8192 25.246V34.8531H60.3621V28.5648L63.8858 34.8531L67.4094 28.5648V34.8531H70.9523V25.246C70.9523 24.5764 70.7469 24.0087 70.3362 23.5429C69.9126 23.0771 69.4119 22.8442 68.8343 22.8442H67.2746L63.8858 28.8923L60.4969 22.8442H58.9373C58.3596 22.8442 57.8654 23.0771 57.4546 23.5429C57.031 24.0087 56.8192 24.5764 56.8192 25.246ZM43.6467 22.8442C43.0691 22.8442 42.5749 23.0771 42.1641 23.5429C41.7405 24.0087 41.5287 24.5764 41.5287 25.246V34.8531H45.0716V30.8574H50.7133V34.8531H54.2369V25.246C54.2369 24.5764 54.0315 24.0087 53.6208 23.5429C53.21 23.0771 52.7094 22.8442 52.1189 22.8442H43.6467ZM45.0716 27.6478V26.0539H50.7133V27.6478H45.0716ZM35.2552 26.0539V31.6434H26.0707V34.8531H36.6609C37.2513 34.8531 37.752 34.6202 38.1627 34.1544C38.5735 33.6886 38.7789 33.1209 38.7789 32.4513V25.246C38.7789 24.5764 38.5735 24.0087 38.1627 23.5429C37.752 23.0771 37.2513 22.8442 36.6609 22.8442H26.0707V26.0539H35.2552ZM10.5358 22.8442V26.0539H15.1377V34.8531H18.6614V26.0539H23.244V22.8442H10.5358ZM4.4549 26.0539V27.2548H-3.15079V30.4426H4.4549V31.6434H-4.72969V34.8531H5.8605C6.45099 34.8531 6.95162 34.6202 7.36239 34.1544C7.77316 33.6886 7.97855 33.1209 7.97855 32.4513V25.246C7.97855 24.5764 7.77316 24.0087 7.36239 23.5429C6.95162 23.0771 6.45099 22.8442 5.8605 22.8442H-4.72969V26.0539H4.4549ZM-18.0117 22.8442C-18.6022 22.8442 -19.1028 23.0771 -19.5136 23.5429C-19.9244 24.0087 -20.1297 24.5764 -20.1297 25.246V28.4556C-20.1297 29.1107 -19.9244 29.6784 -19.5136 30.1587C-19.1028 30.6245 -18.6022 30.8574 -18.0117 30.8574H-10.9452V34.8531H-7.42151V22.8442H-18.0117ZM-16.6061 27.6478V26.0539H-10.9452V27.6478H-16.6061Z" stroke="#3386FF" stroke-width="0.31496" mask="url(#path-3-outside-2)"/>
</g>
<g clip-path="url(#clip2)">
<mask id="path-4-outside-3" maskUnits="userSpaceOnUse" x="26.3082" y="21.8442" width="154" height="14" fill="black">
<rect fill="white" x="26.3082" y="21.8442" width="154" height="14"/>
<path d="M30.8319 26.0539V31.6434H40.0165V34.8531H29.4263C28.8358 34.8531 28.3352 34.6202 27.9244 34.1544C27.5136 33.6886 27.3082 33.1209 27.3082 32.4513V25.246C27.3082 24.5764 27.5136 24.0087 27.9244 23.5429C28.3352 23.0771 28.8358 22.8442 29.4263 22.8442H40.0165V26.0539H30.8319ZM53.2985 22.8442C53.889 22.8442 54.3896 23.0771 54.8004 23.5429C55.2111 24.0087 55.4165 24.5764 55.4165 25.246V27.7133C55.4165 27.9462 55.3459 28.1791 55.2047 28.412C55.0764 28.6303 54.9095 28.7759 54.7041 28.8487C54.9095 28.9214 55.0764 29.0743 55.2047 29.3072C55.3459 29.5255 55.4165 29.7511 55.4165 29.984V32.4513C55.4165 33.1209 55.2111 33.6886 54.8004 34.1544C54.3896 34.6202 53.889 34.8531 53.2985 34.8531H42.7084V22.8442H53.2985ZM51.8929 31.6434V30.4426H46.232V31.6434H51.8929ZM51.8929 27.2548V26.0539H46.232V27.2548H51.8929ZM67.2932 31.6434V26.0539H61.6322V31.6434H67.2932ZM68.6988 22.8442C69.2892 22.8442 69.7899 23.0771 70.2006 23.5429C70.6114 24.0087 70.8168 24.5764 70.8168 25.246V32.4513C70.8168 33.1209 70.6114 33.6886 70.2006 34.1544C69.7899 34.6202 69.2892 34.8531 68.6988 34.8531H60.2266C59.6361 34.8531 59.1355 34.6202 58.7247 34.1544C58.314 33.6886 58.1086 33.1209 58.1086 32.4513V25.246C58.1086 24.5764 58.314 24.0087 58.7247 23.5429C59.1355 23.0771 59.6361 22.8442 60.2266 22.8442H68.6988ZM86.2169 22.8442V32.4513C86.2169 33.1209 86.0115 33.6886 85.6007 34.1544C85.1899 34.6202 84.6893 34.8531 84.0988 34.8531H82.2889L77.0323 27.4076V34.8531H73.5086V25.246C73.5086 24.5764 73.714 24.0087 74.1248 23.5429C74.5356 23.0771 75.0362 22.8442 75.6267 22.8442H77.4366L82.6932 30.2897V22.8442H86.2169ZM103.023 25.246V34.8531H99.4799V28.5648L95.9562 34.8531L92.4326 28.5648V34.8531H88.8897V25.246C88.8897 24.5764 89.095 24.0087 89.5058 23.5429C89.9294 23.0771 90.4301 22.8442 91.0077 22.8442H92.5673L95.9562 28.8923L99.3451 22.8442H100.905C101.482 22.8442 101.977 23.0771 102.387 23.5429C102.811 24.0087 103.023 24.5764 103.023 25.246ZM116.195 22.8442C116.773 22.8442 117.267 23.0771 117.678 23.5429C118.101 24.0087 118.313 24.5764 118.313 25.246V34.8531H114.77V30.8574H109.129V34.8531H105.605V25.246C105.605 24.5764 105.81 24.0087 106.221 23.5429C106.632 23.0771 107.133 22.8442 107.723 22.8442H116.195ZM114.77 27.6478V26.0539H109.129V27.6478H114.77ZM124.587 26.0539V31.6434H133.771V34.8531H123.181C122.591 34.8531 122.09 34.6202 121.679 34.1544C121.268 33.6886 121.063 33.1209 121.063 32.4513V25.246C121.063 24.5764 121.268 24.0087 121.679 23.5429C122.09 23.0771 122.591 22.8442 123.181 22.8442H133.771V26.0539H124.587ZM149.306 22.8442V26.0539H144.704V34.8531H141.181V26.0539H136.598V22.8442H149.306ZM155.387 26.0539V27.2548H162.993V30.4426H155.387V31.6434H164.572V34.8531H153.981C153.391 34.8531 152.89 34.6202 152.48 34.1544C152.069 33.6886 151.863 33.1209 151.863 32.4513V25.246C151.863 24.5764 152.069 24.0087 152.48 23.5429C152.89 23.0771 153.391 22.8442 153.981 22.8442H164.572V26.0539H155.387ZM177.854 22.8442C178.444 22.8442 178.945 23.0771 179.356 23.5429C179.766 24.0087 179.972 24.5764 179.972 25.246V28.4556C179.972 29.1107 179.766 29.6784 179.356 30.1587C178.945 30.6245 178.444 30.8574 177.854 30.8574H170.787V34.8531H167.263V22.8442H177.854ZM176.448 27.6478V26.0539H170.787V27.6478H176.448Z"/>
</mask>
<path d="M30.8319 26.0539V31.6434H40.0165V34.8531H29.4263C28.8358 34.8531 28.3352 34.6202 27.9244 34.1544C27.5136 33.6886 27.3082 33.1209 27.3082 32.4513V25.246C27.3082 24.5764 27.5136 24.0087 27.9244 23.5429C28.3352 23.0771 28.8358 22.8442 29.4263 22.8442H40.0165V26.0539H30.8319ZM53.2985 22.8442C53.889 22.8442 54.3896 23.0771 54.8004 23.5429C55.2111 24.0087 55.4165 24.5764 55.4165 25.246V27.7133C55.4165 27.9462 55.3459 28.1791 55.2047 28.412C55.0764 28.6303 54.9095 28.7759 54.7041 28.8487C54.9095 28.9214 55.0764 29.0743 55.2047 29.3072C55.3459 29.5255 55.4165 29.7511 55.4165 29.984V32.4513C55.4165 33.1209 55.2111 33.6886 54.8004 34.1544C54.3896 34.6202 53.889 34.8531 53.2985 34.8531H42.7084V22.8442H53.2985ZM51.8929 31.6434V30.4426H46.232V31.6434H51.8929ZM51.8929 27.2548V26.0539H46.232V27.2548H51.8929ZM67.2932 31.6434V26.0539H61.6322V31.6434H67.2932ZM68.6988 22.8442C69.2892 22.8442 69.7899 23.0771 70.2006 23.5429C70.6114 24.0087 70.8168 24.5764 70.8168 25.246V32.4513C70.8168 33.1209 70.6114 33.6886 70.2006 34.1544C69.7899 34.6202 69.2892 34.8531 68.6988 34.8531H60.2266C59.6361 34.8531 59.1355 34.6202 58.7247 34.1544C58.314 33.6886 58.1086 33.1209 58.1086 32.4513V25.246C58.1086 24.5764 58.314 24.0087 58.7247 23.5429C59.1355 23.0771 59.6361 22.8442 60.2266 22.8442H68.6988ZM86.2169 22.8442V32.4513C86.2169 33.1209 86.0115 33.6886 85.6007 34.1544C85.1899 34.6202 84.6893 34.8531 84.0988 34.8531H82.2889L77.0323 27.4076V34.8531H73.5086V25.246C73.5086 24.5764 73.714 24.0087 74.1248 23.5429C74.5356 23.0771 75.0362 22.8442 75.6267 22.8442H77.4366L82.6932 30.2897V22.8442H86.2169ZM103.023 25.246V34.8531H99.4799V28.5648L95.9562 34.8531L92.4326 28.5648V34.8531H88.8897V25.246C88.8897 24.5764 89.095 24.0087 89.5058 23.5429C89.9294 23.0771 90.4301 22.8442 91.0077 22.8442H92.5673L95.9562 28.8923L99.3451 22.8442H100.905C101.482 22.8442 101.977 23.0771 102.387 23.5429C102.811 24.0087 103.023 24.5764 103.023 25.246ZM116.195 22.8442C116.773 22.8442 117.267 23.0771 117.678 23.5429C118.101 24.0087 118.313 24.5764 118.313 25.246V34.8531H114.77V30.8574H109.129V34.8531H105.605V25.246C105.605 24.5764 105.81 24.0087 106.221 23.5429C106.632 23.0771 107.133 22.8442 107.723 22.8442H116.195ZM114.77 27.6478V26.0539H109.129V27.6478H114.77ZM124.587 26.0539V31.6434H133.771V34.8531H123.181C122.591 34.8531 122.09 34.6202 121.679 34.1544C121.268 33.6886 121.063 33.1209 121.063 32.4513V25.246C121.063 24.5764 121.268 24.0087 121.679 23.5429C122.09 23.0771 122.591 22.8442 123.181 22.8442H133.771V26.0539H124.587ZM149.306 22.8442V26.0539H144.704V34.8531H141.181V26.0539H136.598V22.8442H149.306ZM155.387 26.0539V27.2548H162.993V30.4426H155.387V31.6434H164.572V34.8531H153.981C153.391 34.8531 152.89 34.6202 152.48 34.1544C152.069 33.6886 151.863 33.1209 151.863 32.4513V25.246C151.863 24.5764 152.069 24.0087 152.48 23.5429C152.89 23.0771 153.391 22.8442 153.981 22.8442H164.572V26.0539H155.387ZM177.854 22.8442C178.444 22.8442 178.945 23.0771 179.356 23.5429C179.766 24.0087 179.972 24.5764 179.972 25.246V28.4556C179.972 29.1107 179.766 29.6784 179.356 30.1587C178.945 30.6245 178.444 30.8574 177.854 30.8574H170.787V34.8531H167.263V22.8442H177.854ZM176.448 27.6478V26.0539H170.787V27.6478H176.448Z" fill="#FC3637"/>
<path d="M30.8319 26.0539V31.6434H40.0165V34.8531H29.4263C28.8358 34.8531 28.3352 34.6202 27.9244 34.1544C27.5136 33.6886 27.3082 33.1209 27.3082 32.4513V25.246C27.3082 24.5764 27.5136 24.0087 27.9244 23.5429C28.3352 23.0771 28.8358 22.8442 29.4263 22.8442H40.0165V26.0539H30.8319ZM53.2985 22.8442C53.889 22.8442 54.3896 23.0771 54.8004 23.5429C55.2111 24.0087 55.4165 24.5764 55.4165 25.246V27.7133C55.4165 27.9462 55.3459 28.1791 55.2047 28.412C55.0764 28.6303 54.9095 28.7759 54.7041 28.8487C54.9095 28.9214 55.0764 29.0743 55.2047 29.3072C55.3459 29.5255 55.4165 29.7511 55.4165 29.984V32.4513C55.4165 33.1209 55.2111 33.6886 54.8004 34.1544C54.3896 34.6202 53.889 34.8531 53.2985 34.8531H42.7084V22.8442H53.2985ZM51.8929 31.6434V30.4426H46.232V31.6434H51.8929ZM51.8929 27.2548V26.0539H46.232V27.2548H51.8929ZM67.2932 31.6434V26.0539H61.6322V31.6434H67.2932ZM68.6988 22.8442C69.2892 22.8442 69.7899 23.0771 70.2006 23.5429C70.6114 24.0087 70.8168 24.5764 70.8168 25.246V32.4513C70.8168 33.1209 70.6114 33.6886 70.2006 34.1544C69.7899 34.6202 69.2892 34.8531 68.6988 34.8531H60.2266C59.6361 34.8531 59.1355 34.6202 58.7247 34.1544C58.314 33.6886 58.1086 33.1209 58.1086 32.4513V25.246C58.1086 24.5764 58.314 24.0087 58.7247 23.5429C59.1355 23.0771 59.6361 22.8442 60.2266 22.8442H68.6988ZM86.2169 22.8442V32.4513C86.2169 33.1209 86.0115 33.6886 85.6007 34.1544C85.1899 34.6202 84.6893 34.8531 84.0988 34.8531H82.2889L77.0323 27.4076V34.8531H73.5086V25.246C73.5086 24.5764 73.714 24.0087 74.1248 23.5429C74.5356 23.0771 75.0362 22.8442 75.6267 22.8442H77.4366L82.6932 30.2897V22.8442H86.2169ZM103.023 25.246V34.8531H99.4799V28.5648L95.9562 34.8531L92.4326 28.5648V34.8531H88.8897V25.246C88.8897 24.5764 89.095 24.0087 89.5058 23.5429C89.9294 23.0771 90.4301 22.8442 91.0077 22.8442H92.5673L95.9562 28.8923L99.3451 22.8442H100.905C101.482 22.8442 101.977 23.0771 102.387 23.5429C102.811 24.0087 103.023 24.5764 103.023 25.246ZM116.195 22.8442C116.773 22.8442 117.267 23.0771 117.678 23.5429C118.101 24.0087 118.313 24.5764 118.313 25.246V34.8531H114.77V30.8574H109.129V34.8531H105.605V25.246C105.605 24.5764 105.81 24.0087 106.221 23.5429C106.632 23.0771 107.133 22.8442 107.723 22.8442H116.195ZM114.77 27.6478V26.0539H109.129V27.6478H114.77ZM124.587 26.0539V31.6434H133.771V34.8531H123.181C122.591 34.8531 122.09 34.6202 121.679 34.1544C121.268 33.6886 121.063 33.1209 121.063 32.4513V25.246C121.063 24.5764 121.268 24.0087 121.679 23.5429C122.09 23.0771 122.591 22.8442 123.181 22.8442H133.771V26.0539H124.587ZM149.306 22.8442V26.0539H144.704V34.8531H141.181V26.0539H136.598V22.8442H149.306ZM155.387 26.0539V27.2548H162.993V30.4426H155.387V31.6434H164.572V34.8531H153.981C153.391 34.8531 152.89 34.6202 152.48 34.1544C152.069 33.6886 151.863 33.1209 151.863 32.4513V25.246C151.863 24.5764 152.069 24.0087 152.48 23.5429C152.89 23.0771 153.391 22.8442 153.981 22.8442H164.572V26.0539H155.387ZM177.854 22.8442C178.444 22.8442 178.945 23.0771 179.356 23.5429C179.766 24.0087 179.972 24.5764 179.972 25.246V28.4556C179.972 29.1107 179.766 29.6784 179.356 30.1587C178.945 30.6245 178.444 30.8574 177.854 30.8574H170.787V34.8531H167.263V22.8442H177.854ZM176.448 27.6478V26.0539H170.787V27.6478H176.448Z" stroke="#FC3637" stroke-width="0.31496" mask="url(#path-4-outside-3)"/>
</g>
<path d="M77.7949 20.9907H80.6296C80.9775 20.9907 81.2595 21.2727 81.2595 21.6206V22.2506H78.4248C78.0769 22.2506 77.7949 21.9685 77.7949 21.6206V20.9907Z" fill="#3386FF"/>
<path fill-rule="evenodd" clip-rule="evenodd" d="M50.5064 18.305C50.1509 17.5717 49.7593 16.8591 49.3336 16.1696L51.6548 11.5153C50.0616 9.41338 48.1861 7.53783 46.0855 5.94456L41.4322 8.26652C39.2673 6.92834 36.874 5.92574 34.3266 5.32304L32.6769 0.386926C31.3894 0.210767 30.0757 0.117188 28.7396 0.117188C27.4034 0.117188 26.0902 0.210767 24.8022 0.386926L23.1525 5.32304C20.6051 5.92574 18.2118 6.92834 16.0464 8.26652L11.3936 5.94456C9.29245 7.53783 7.41755 9.41338 5.82535 11.5153L8.14651 16.1696C6.80879 18.3358 5.80654 20.7299 5.20457 23.2787L0.269634 24.929C0.0935353 26.2164 0 27.5311 0 28.8672C0 30.2033 0.0930127 31.518 0.269634 32.8054L5.20457 34.4557C5.80706 37.0045 6.80878 39.3986 8.14598 41.5648L5.82588 46.2191C7.41808 48.321 9.29297 50.1966 11.3941 51.7898L16.0469 49.4679C18.2123 50.806 20.6056 51.8086 23.153 52.4114L24.8027 57.3469C26.0902 57.5236 27.4039 57.6172 28.7401 57.6172C30.0762 57.6172 31.3894 57.5236 32.6775 57.3469L34.3271 52.4114C36.8746 51.8086 39.2678 50.8061 41.4327 49.4684L46.086 51.7898C48.1867 50.1966 50.0621 48.321 51.6543 46.2191L49.3342 41.5648C49.7291 40.9251 50.0947 40.2655 50.4294 39.5879H45.2036C41.6986 44.9635 35.6338 48.5165 28.7396 48.5165C17.8915 48.5165 9.09702 39.7195 9.09702 28.8672C9.09702 18.0148 17.8915 9.21787 28.7396 9.21787C35.7013 9.21787 41.8173 12.8409 45.3059 18.305H50.5064Z" fill="#3386FF"/>
<path fill-rule="evenodd" clip-rule="evenodd" d="M48.8177 39.5884V42.5733L89.1791 39.5884H48.8177Z" fill="#3386FF"/>
<path fill-rule="evenodd" clip-rule="evenodd" d="M89.1765 18.304L48.8188 15.3193V18.304L89.1765 18.304Z" fill="#3386FF"/>
<defs>
<clipPath id="clip0">
<rect width="45.0392" height="12.1301" fill="white" transform="translate(27.2437 22.7239)"/>
</clipPath>
<clipPath id="clip1">
<rect width="16.063" height="12.1301" fill="white" transform="matrix(-1 0 0 1 87.7159 22.7234)"/>
</clipPath>
<clipPath id="clip2">
<rect width="91.1809" height="12.1301" fill="white" transform="translate(88.8185 22.7234)"/>
</clipPath>
</defs>
</svg>
