<svg width="20" height="21" viewBox="0 0 20 21" fill="none" xmlns="http://www.w3.org/2000/svg">
<circle cx="10" cy="11" r="2.5" stroke="#50515A" stroke-width="3"/>
<path fill-rule="evenodd" clip-rule="evenodd" d="M1.32824 9.23741C1.19005 9.86206 1.11719 10.5113 1.11719 11.1775C1.11719 16.1156 5.12034 20.1188 10.0585 20.1188C14.9966 20.1188 18.9998 16.1156 18.9998 11.1775C18.9998 6.44764 15.3272 2.57558 10.6782 2.25732L10.9543 2.61085C11.2942 3.04612 11.217 3.67455 10.7817 4.0145L9.12392 5.30927C9.42837 5.26116 9.74051 5.23618 10.0585 5.23618C13.3398 5.23618 15.9998 7.89619 15.9998 11.1775C15.9998 14.4588 13.3398 17.1188 10.0585 17.1188C6.77719 17.1188 4.11719 14.4588 4.11719 11.1775C4.11719 10.3515 4.28575 9.56482 4.59036 8.85008L3.16441 9.96378C2.72915 10.3037 2.10071 10.2265 1.76076 9.7912L1.32824 9.23741Z" fill="#50515A"/>
<mask id="path-3-inside-1" fill="white">
<rect y="6.06836" width="9.8588" height="4.2252" rx="1" transform="rotate(-37.9906 0 6.06836)"/>
</mask>
<rect y="6.06836" width="9.8588" height="4.2252" rx="1" transform="rotate(-37.9906 0 6.06836)" fill="white" stroke="#50515A" stroke-width="3" mask="url(#path-3-inside-1)"/>
</svg>
