<svg width="20" height="20" viewBox="0 0 20 20" fill="none" xmlns="http://www.w3.org/2000/svg">
<g clip-path="url(#clip0)">
<path d="M18.1648 10.8115H17.5119C17.3353 10.8115 17.1293 10.6517 17.0622 10.4624C16.9999 10.2869 16.9268 10.1123 16.8451 9.94323C16.758 9.76343 16.7901 9.50607 16.915 9.38118L17.3797 8.91642C17.7052 8.59086 17.7052 8.06106 17.3797 7.73548L16.6254 6.98119C16.4676 6.82346 16.258 6.73662 16.0349 6.73662C15.8118 6.73662 15.6021 6.82346 15.4444 6.98119L14.9797 7.44594C14.905 7.52053 14.7808 7.56508 14.6474 7.56508C14.5639 7.56508 14.4845 7.54801 14.4178 7.51571C14.2487 7.43388 14.0738 7.36068 13.8979 7.29813C13.7087 7.23097 13.5489 7.025 13.5489 6.84841V6.19551C13.5489 5.73512 13.1743 5.36047 12.7138 5.36047H11.6468C11.1863 5.36047 10.8118 5.73512 10.8118 6.19551V6.84841C10.8118 7.02506 10.652 7.23106 10.4627 7.29813C10.2871 7.3605 10.1123 7.43351 9.94336 7.51517C9.87778 7.54688 9.79639 7.56435 9.71419 7.56435C9.5803 7.56435 9.45571 7.51972 9.38091 7.44494L8.91691 6.98113C8.75918 6.8234 8.54948 6.73656 8.32635 6.73656C8.10331 6.73656 7.89361 6.8234 7.73588 6.98103L6.98083 7.73563C6.82301 7.89327 6.73617 8.10294 6.73608 8.32601C6.73608 8.54905 6.82291 8.75875 6.98064 8.91648L7.4454 9.38124C7.57039 9.50622 7.6025 9.76376 7.51547 9.94369C7.43391 10.1125 7.3609 10.287 7.29865 10.4625C7.23149 10.6517 7.02561 10.8116 6.84893 10.8116H6.19612C5.73564 10.8116 5.36108 11.1862 5.36108 11.6466V12.7136C5.36108 13.174 5.73564 13.5486 6.19612 13.5486H6.84893C7.02561 13.5486 7.23158 13.7084 7.29874 13.8976C7.3609 14.0726 7.43391 14.2473 7.51575 14.4164C7.60271 14.5962 7.57051 14.8538 7.44543 14.9789L6.98067 15.4436C6.65512 15.7692 6.65512 16.2989 6.98067 16.6245L7.73603 17.3799C7.89376 17.5377 8.10346 17.6245 8.3265 17.6245C8.54954 17.6245 8.75924 17.5377 8.91697 17.3799L9.38173 16.9152C9.4565 16.8404 9.58103 16.7958 9.7148 16.7958C9.79821 16.7958 9.87744 16.8128 9.94397 16.845C10.113 16.9267 10.2876 16.9998 10.4629 17.062C10.6521 17.1292 10.812 17.3351 10.812 17.5118V18.1647C10.812 18.6251 11.1865 18.9997 11.647 18.9997H12.714C13.1744 18.9997 13.549 18.6251 13.549 18.1647V17.5118C13.549 17.3351 13.7089 17.1292 13.8981 17.0621C14.0737 16.9997 14.2485 16.9267 14.4175 16.8451C14.483 16.8133 14.5644 16.7959 14.6466 16.7959C14.7805 16.7959 14.905 16.8405 14.9798 16.9153L15.4445 17.38C15.6023 17.5378 15.8119 17.6246 16.0349 17.6246C16.258 17.6246 16.4677 17.5377 16.6255 17.3799L17.3801 16.6248C17.7055 16.2992 17.7055 15.7694 17.38 15.4438L16.9157 14.9792C16.7908 14.8544 16.7587 14.5968 16.8457 14.4169C16.9273 14.248 17.0002 14.0733 17.0626 13.8978C17.1297 13.7086 17.3356 13.5488 17.5122 13.5488H18.165C18.6255 13.5488 19.0001 13.1742 19.0001 12.7138V11.6468C18.9998 11.1861 18.6251 10.8115 18.1648 10.8115ZM14.6275 12.18C14.6275 13.5294 13.5296 14.6272 12.1803 14.6272C10.831 14.6272 9.73317 13.5294 9.73317 12.18C9.73317 10.8307 10.831 9.73293 12.1803 9.73293C13.5296 9.73293 14.6275 10.8306 14.6275 12.18Z" fill="#50515A"/>
<path d="M7.12082 5.45457C7.13662 5.41012 7.1894 5.37264 7.21427 5.37264H7.54125C7.84819 5.37264 8.09794 5.12298 8.09794 4.81595V4.28245C8.09794 3.97545 7.84819 3.72576 7.54125 3.72576H7.21436C7.1895 3.72576 7.13671 3.68828 7.12094 3.64383C7.0881 3.55132 7.04959 3.45921 7.00645 3.37022C6.98631 3.32856 6.99699 3.26573 7.01442 3.2483L7.24686 3.01589C7.46387 2.79876 7.46387 2.44564 7.24686 2.22864L6.8697 1.85147C6.76458 1.74635 6.62474 1.68847 6.47604 1.68847C6.32732 1.68847 6.18748 1.74647 6.08236 1.85157L5.85004 2.08391C5.84279 2.09116 5.81793 2.10274 5.78221 2.10274C5.7619 2.10274 5.74222 2.09886 5.72812 2.09198C5.63898 2.04883 5.54692 2.01033 5.4545 1.97758C5.40996 1.96181 5.37249 1.9089 5.37249 1.88413V1.55718C5.37249 1.25015 5.12273 1.00049 4.81579 1.00049H4.2823C3.97536 1.00049 3.72561 1.25015 3.72561 1.55718V1.88413C3.72561 1.90899 3.68813 1.96169 3.64368 1.97749C3.55081 2.01042 3.45866 2.04902 3.36988 2.09198C3.35587 2.09874 3.3361 2.10265 3.31579 2.10265C3.28007 2.10265 3.2553 2.09116 3.24808 2.08391L3.01564 1.85157C2.91052 1.74644 2.77071 1.68856 2.62199 1.68856C2.47326 1.68856 2.33351 1.74644 2.22842 1.85157L1.8512 2.22873C1.63419 2.44585 1.63419 2.79906 1.8512 3.01607L2.08352 3.24839C2.10095 3.26582 2.11172 3.32865 2.09158 3.37022C2.04844 3.4593 2.00993 3.55142 1.97709 3.64392C1.96132 3.68837 1.90841 3.72594 1.88364 3.72594H1.55669C1.24978 3.72594 1 3.9756 1 4.28263V4.81613C1 5.12307 1.24969 5.37282 1.5566 5.37282H1.88358C1.90844 5.37282 1.96123 5.4103 1.97703 5.45475C2.00987 5.54735 2.04838 5.63937 2.09152 5.72836C2.11165 5.77003 2.10098 5.83282 2.08355 5.85028L1.85111 6.08272C1.74598 6.18785 1.6881 6.32769 1.6881 6.47638C1.6881 6.6251 1.74598 6.76485 1.8512 6.87007L2.22836 7.24714C2.33348 7.35226 2.47329 7.41014 2.62202 7.41014C2.77074 7.41014 2.91049 7.35226 3.01558 7.24714L3.24802 7.01473C3.25524 7.00748 3.28013 6.9959 3.31585 6.9959C3.33616 6.9959 3.35584 6.99978 3.36994 7.00663C3.45912 7.04978 3.55117 7.08829 3.64356 7.12103C3.6881 7.1368 3.72558 7.18968 3.72558 7.21445V7.54143C3.72558 7.84843 3.97536 8.09812 4.28227 8.09812H4.81576C5.1227 8.09812 5.37246 7.84846 5.37246 7.54143V7.21454C5.37246 7.18968 5.40993 7.13698 5.45438 7.12122C5.54689 7.08838 5.63892 7.04987 5.728 7.00672C5.7421 6.99984 5.76187 6.99596 5.78218 6.99596C5.8179 6.99596 5.84267 7.00754 5.85001 7.01479L6.08245 7.2472C6.18757 7.35232 6.32738 7.4102 6.47611 7.4102C6.62483 7.4102 6.76458 7.35232 6.86967 7.2472L7.24683 6.87007C7.46384 6.65294 7.46384 6.29982 7.24683 6.08282L7.01451 5.8505C6.99705 5.83306 6.98628 5.77015 7.00642 5.72858C7.04959 5.63901 7.08807 5.54699 7.12082 5.45457ZM5.63337 4.54918C5.63337 5.14708 5.14693 5.63361 4.54903 5.63361C3.95104 5.63361 3.4646 5.14717 3.4646 4.54918C3.4646 3.9512 3.95104 3.46476 4.54903 3.46476C5.1469 3.46476 5.63337 3.95123 5.63337 4.54918Z" fill="#50515A"/>
</g>
<defs>
<clipPath id="clip0">
<rect width="18" height="18" fill="white" transform="translate(1 1)"/>
</clipPath>
</defs>
</svg>
