<svg width="20" height="20" viewBox="0 0 20 20" fill="none" xmlns="http://www.w3.org/2000/svg">
<path d="M18.9577 14.5288L17.1165 13.4708L18.8499 12.4677C19.0486 12.3517 19.1158 12.0966 18.9999 11.8978L18.58 11.1781C18.4641 10.9793 18.209 10.9122 18.0102 11.0281L15.4482 12.5123L14.3072 11.4957L16.8351 10.3813C16.9856 10.3145 17.0833 10.1652 17.0833 10C17.0833 9.8348 16.9856 9.68547 16.8351 9.61875L14.2729 8.48918L15.4484 7.82371L18.0224 9.32254C18.2212 9.43852 18.4763 9.37137 18.5922 9.17258L19.012 8.45289C19.128 8.2541 19.0609 7.99898 18.8621 7.88301L17.1152 6.86602L18.9577 5.80734C19.1575 5.69223 19.2259 5.43742 19.1106 5.23812L18.6928 4.51645C18.5775 4.31715 18.322 4.24887 18.1222 4.36395L16.2779 5.42363L16.2758 3.40348C16.2748 3.17336 16.0874 2.98766 15.8573 2.98871L15.0241 2.99242C14.794 2.99344 14.6083 3.18082 14.6093 3.41094L14.6136 6.37992L13.3333 7.10473L13.3308 4.62953C13.3487 4.46473 13.2665 4.3048 13.1225 4.22305C12.9776 4.14086 12.7986 4.15223 12.6667 4.25195L10.8332 5.52094V3.81645L13.4207 2.33527C13.6205 2.22109 13.6899 1.96656 13.5758 1.7668L13.1624 1.04336C13.0483 0.843555 12.7937 0.774141 12.594 0.888281L10.8333 1.89633V0.41668C10.8333 0.186523 10.6467 0 10.4166 0H9.99993H9.58325C9.35313 0 9.16657 0.186563 9.16657 0.41668V1.90242L7.40591 0.88832C7.2061 0.774141 6.95161 0.843555 6.83743 1.04336L6.42407 1.7668C6.30989 1.9666 6.37931 2.22113 6.57911 2.33527L9.16661 3.82414V5.51246L7.35102 4.26078C7.27696 4.20461 7.18825 4.17613 7.09954 4.17613C7.09302 4.17531 7.08731 4.17574 7.08325 4.17613C6.85294 4.17613 6.66657 4.3625 6.66657 4.59281C6.66657 4.64898 6.66657 7.17324 6.66657 7.17324L5.39177 6.04699L5.40274 3.06027C5.4038 2.83016 5.21806 2.64277 4.98798 2.64176L4.15481 2.63805C3.9247 2.63703 3.73731 2.82273 3.73626 3.05281L3.72888 5.09148L1.87766 4.02785C1.67786 3.91281 1.42239 3.98105 1.30704 4.18035L0.889306 4.90203C0.773954 5.10133 0.842391 5.35617 1.0422 5.47125L2.88341 6.52918L1.15001 7.53234C0.95122 7.64832 0.88411 7.90344 1.00001 8.10223L1.41981 8.82191C1.53579 9.0207 1.79091 9.08781 1.9897 8.97187L4.55165 7.4877L5.6927 8.5043L3.16477 9.61875C3.01423 9.68547 2.91657 9.8348 2.91657 10C2.91657 10.1652 3.01423 10.3145 3.16477 10.3813L5.72692 11.5108L4.55149 12.1763L1.97743 10.6775C1.77864 10.5615 1.52352 10.6286 1.40763 10.8274L0.987821 11.5471C0.871845 11.7459 0.938993 12.0011 1.13778 12.117L2.88466 13.134L1.0422 14.1927C0.842391 14.3078 0.773954 14.5626 0.889306 14.7619L1.30704 15.4836C1.42239 15.6829 1.6779 15.7512 1.87766 15.6361L3.72196 14.5764L3.72403 16.5966C3.72505 16.8267 3.91243 17.0124 4.14255 17.0114L4.97579 17.0077C5.20591 17.0066 5.39161 16.8193 5.39056 16.5891L5.38622 13.6201L6.66657 12.8953L6.66903 15.3705C6.65114 15.5353 6.73333 15.6952 6.87735 15.777C7.0222 15.8592 7.20126 15.8478 7.33309 15.7481L9.16661 14.4791V16.1836L6.57911 17.6647C6.37931 17.7789 6.30989 18.0334 6.42407 18.2332L6.83743 18.9566C6.95161 19.1564 7.20614 19.2259 7.40591 19.1117L9.16657 18.1037V19.5833C9.16657 19.8135 9.35313 20 9.58325 20H9.99993H10.4166C10.6467 20 10.8333 19.8134 10.8333 19.5833V18.0976L12.594 19.1117C12.7938 19.2259 13.0483 19.1564 13.1624 18.9566L13.5758 18.2332C13.69 18.0334 13.6206 17.7788 13.4208 17.6647L10.8333 16.1759V14.4875L12.6488 15.7392C12.7229 15.7954 12.8116 15.8239 12.9003 15.8239C12.9068 15.8247 12.9125 15.8243 12.9166 15.8239C13.1469 15.8239 13.3333 15.6375 13.3333 15.4072C13.3333 15.351 13.3333 12.8268 13.3333 12.8268L14.6081 13.953L14.5971 16.9397C14.5961 17.1698 14.7818 17.3572 15.0119 17.3582L15.8451 17.362C16.0752 17.363 16.2626 17.1773 16.2636 16.9471L16.271 14.9085L18.1222 15.9721C18.322 16.0871 18.5775 16.0189 18.6929 15.8196L19.1106 15.0979C19.2259 14.8987 19.1574 14.6438 18.9577 14.5288Z" fill="#50515A"/>
</svg>
