<svg width="20" height="20" viewBox="0 0 20 20" fill="none" xmlns="http://www.w3.org/2000/svg">
<path d="M8.72851 13.3411C9.35745 15.6883 8.3537 17.9967 6.48657 18.497C4.61944 18.9973 2.59597 17.5001 1.96702 15.1528C1.33808 12.8056 2.81728 7.05688 3.38074 6.9059C3.9442 6.75492 8.09956 10.9938 8.72851 13.3411Z" fill="#50515A"/>
<path d="M16.6292 13.1434C17.8394 14.3535 18.04 16.1149 17.0774 17.0775C16.1148 18.0401 14.3535 17.8394 13.1433 16.6293C11.9332 15.4192 10.8111 11.3921 11.1016 11.1017C11.3921 10.8112 15.4191 11.9333 16.6292 13.1434Z" fill="#50515A"/>
<path d="M15.1528 1.96702C17.5 2.59596 18.9973 4.61943 18.497 6.48656C17.9967 8.35369 15.6883 9.35744 13.341 8.7285C10.9938 8.09956 6.75489 3.94419 6.90587 3.38073C7.05684 2.81728 12.8055 1.33807 15.1528 1.96702Z" fill="#50515A"/>
</svg>
